<?xml version="1.0" standalone="no"?>
<!DOCTYPE svg PUBLIC "-//W3C//DTD SVG 1.1//EN" "http://www.w3.org/Graphics/SVG/1.1/DTD/svg11.dtd">
<svg width="107.0mm" height="2132.25949718625mm"
 viewBox="0 0 107.0 2132.25949718625"
 xmlns="http://www.w3.org/2000/svg" version="1.1"
 xmlns:xlink="http://www.w3.org/1999/xlink">
<desc>Output from Flights of Ideas SVG Sketchup Plugin</desc>

  <g id="face0" fill="none" stroke="rgb(0,0,255)" stroke-width="1" stroke-miterlimit="4" stroke-dasharray="none" stroke-linejoin="round" stroke-linecap="round">
    <line x1="13.0" y1="70.3" x2="42.5" y2="70.3"/>
    <line x1="42.5" y1="70.3" x2="42.5" y2="65.2999999999999"/>
    <line x1="42.5" y1="65.2999999999999" x2="58.5000000000001" y2="65.2999999999999"/>
    <line x1="58.5000000000001" y1="65.2999999999999" x2="58.5000000000001" y2="70.3"/>
    <line x1="58.5000000000001" y1="70.3" x2="88.0000000000001" y2="70.3"/>
    <line x1="88.0000000000001" y1="70.3" x2="88.0000000000001" y2="60.2999999999999"/>
    <line x1="88.0000000000001" y1="60.2999999999999" x2="91.0000000000001" y2="60.2999999999999"/>
    <line x1="91.0000000000001" y1="60.2999999999999" x2="91.0000000000001" y2="19.9999999999997"/>
    <line x1="91.0000000000001" y1="19.9999999999997" x2="88.0000000000001" y2="19.9999999999997"/>
    <line x1="88.0000000000001" y1="19.9999999999997" x2="88.0000000000001" y2="10.0"/>
    <line x1="88.0000000000001" y1="10.0" x2="13.0" y2="10.0"/>
    <line x1="13.0" y1="10.0" x2="13.0" y2="19.9999999999997"/>
    <line x1="13.0" y1="19.9999999999997" x2="10.0" y2="19.9999999999997"/>
    <line x1="10.0" y1="19.9999999999997" x2="10.0" y2="60.2999999999999"/>
    <line x1="10.0" y1="60.2999999999999" x2="13.0" y2="60.2999999999999"/>
    <line x1="13.0" y1="60.2999999999999" x2="13.0" y2="70.3"/>
    <line x1="15.2813926972395" y1="11.7009618943233" x2="15.6431641295857" y2="11.5511112605664"/>
    <line x1="15.6431641295857" y1="11.5511112605664" x2="16.0313926972395" y2="11.5"/>
    <line x1="16.0313926972395" y1="11.5" x2="16.4196212648933" y2="11.5511112605664"/>
    <line x1="16.4196212648933" y1="11.5511112605664" x2="16.7813926972394" y2="11.7009618943233"/>
    <line x1="16.7813926972394" y1="11.7009618943233" x2="17.0920528690194" y2="11.9393398282203"/>
    <line x1="17.0920528690194" y1="11.9393398282203" x2="17.3304308029161" y2="12.25"/>
    <line x1="17.3304308029161" y1="12.25" x2="17.4802814366731" y2="12.6117714323462"/>
    <line x1="17.4802814366731" y1="12.6117714323462" x2="17.5313926972394" y2="13.0000000000001"/>
    <line x1="17.5313926972394" y1="13.0000000000001" x2="17.4802814366731" y2="13.3882285676538"/>
    <line x1="17.4802814366731" y1="13.3882285676538" x2="17.3304308029162" y2="13.7500000000001"/>
    <line x1="17.3304308029162" y1="13.7500000000001" x2="17.0920528690194" y2="14.0606601717799"/>
    <line x1="17.0920528690194" y1="14.0606601717799" x2="16.7813926972395" y2="14.2990381056766"/>
    <line x1="16.7813926972395" y1="14.2990381056766" x2="16.4196212648933" y2="14.4488887394336"/>
    <line x1="16.4196212648933" y1="14.4488887394336" x2="16.0313926972395" y2="14.5000000000001"/>
    <line x1="16.0313926972395" y1="14.5000000000001" x2="15.6431641295857" y2="14.4488887394336"/>
    <line x1="15.6431641295857" y1="14.4488887394336" x2="15.2813926972397" y2="14.2990381056766"/>
    <line x1="15.2813926972397" y1="14.2990381056766" x2="14.9707325254597" y2="14.0606601717799"/>
    <line x1="14.9707325254597" y1="14.0606601717799" x2="14.7323545915629" y2="13.7500000000001"/>
    <line x1="14.7323545915629" y1="13.7500000000001" x2="14.5825039578059" y2="13.3882285676538"/>
    <line x1="14.5825039578059" y1="13.3882285676538" x2="14.5313926972395" y2="13.0000000000001"/>
    <line x1="14.5313926972395" y1="13.0000000000001" x2="14.5825039578058" y2="12.6117714323462"/>
    <line x1="14.5825039578058" y1="12.6117714323462" x2="14.7323545915629" y2="12.25"/>
    <line x1="14.7323545915629" y1="12.25" x2="14.9707325254598" y2="11.9393398282203"/>
    <line x1="14.9707325254598" y1="11.9393398282203" x2="15.2813926972395" y2="11.7009618943233"/>
    <line x1="17.0920528690194" y1="56.3393398282203" x2="17.3304308029162" y2="56.65"/>
    <line x1="17.3304308029162" y1="56.65" x2="17.4802814366731" y2="57.0117714323463"/>
    <line x1="17.4802814366731" y1="57.0117714323463" x2="17.5313926972394" y2="57.4000000000001"/>
    <line x1="17.5313926972394" y1="57.4000000000001" x2="17.4802814366731" y2="57.7882285676538"/>
    <line x1="17.4802814366731" y1="57.7882285676538" x2="17.3304308029162" y2="58.1500000000001"/>
    <line x1="17.3304308029162" y1="58.1500000000001" x2="17.0920528690193" y2="58.4606601717799"/>
    <line x1="17.0920528690193" y1="58.4606601717799" x2="16.7813926972394" y2="58.6990381056766"/>
    <line x1="16.7813926972394" y1="58.6990381056766" x2="16.4196212648933" y2="58.8488887394336"/>
    <line x1="16.4196212648933" y1="58.8488887394336" x2="16.0313926972395" y2="58.9000000000001"/>
    <line x1="16.0313926972395" y1="58.9000000000001" x2="15.6431641295857" y2="58.8488887394336"/>
    <line x1="15.6431641295857" y1="58.8488887394336" x2="15.2813926972397" y2="58.6990381056766"/>
    <line x1="15.2813926972397" y1="58.6990381056766" x2="14.9707325254597" y2="58.4606601717799"/>
    <line x1="14.9707325254597" y1="58.4606601717799" x2="14.7323545915629" y2="58.1500000000001"/>
    <line x1="14.7323545915629" y1="58.1500000000001" x2="14.5825039578059" y2="57.7882285676538"/>
    <line x1="14.5825039578059" y1="57.7882285676538" x2="14.5313926972395" y2="57.4000000000001"/>
    <line x1="14.5313926972395" y1="57.4000000000001" x2="14.5825039578059" y2="57.0117714323463"/>
    <line x1="14.5825039578059" y1="57.0117714323463" x2="14.7323545915629" y2="56.65"/>
    <line x1="14.7323545915629" y1="56.65" x2="14.9707325254598" y2="56.3393398282203"/>
    <line x1="14.9707325254598" y1="56.3393398282203" x2="15.2813926972397" y2="56.1009618943235"/>
    <line x1="15.2813926972397" y1="56.1009618943235" x2="15.6431641295857" y2="55.9511112605664"/>
    <line x1="15.6431641295857" y1="55.9511112605664" x2="16.0313926972395" y2="55.9"/>
    <line x1="16.0313926972395" y1="55.9" x2="16.4196212648932" y2="55.9511112605664"/>
    <line x1="16.4196212648932" y1="55.9511112605664" x2="16.7813926972394" y2="56.1009618943235"/>
    <line x1="16.7813926972394" y1="56.1009618943235" x2="17.0920528690194" y2="56.3393398282203"/>
    <line x1="85.7813926972397" y1="14.2990381056766" x2="85.4196212648933" y2="14.4488887394336"/>
    <line x1="85.4196212648933" y1="14.4488887394336" x2="85.0313926972397" y2="14.5000000000001"/>
    <line x1="85.0313926972397" y1="14.5000000000001" x2="84.6431641295857" y2="14.4488887394336"/>
    <line x1="84.6431641295857" y1="14.4488887394336" x2="84.2813926972397" y2="14.2990381056766"/>
    <line x1="84.2813926972397" y1="14.2990381056766" x2="83.9707325254597" y2="14.0606601717799"/>
    <line x1="83.9707325254597" y1="14.0606601717799" x2="83.7323545915627" y2="13.7500000000001"/>
    <line x1="83.7323545915627" y1="13.7500000000001" x2="83.5825039578059" y2="13.3882285676538"/>
    <line x1="83.5825039578059" y1="13.3882285676538" x2="83.5313926972397" y2="13.0000000000001"/>
    <line x1="83.5313926972397" y1="13.0000000000001" x2="83.5825039578059" y2="12.6117714323461"/>
    <line x1="83.5825039578059" y1="12.6117714323461" x2="83.7323545915629" y2="12.25"/>
    <line x1="83.7323545915629" y1="12.25" x2="83.9707325254597" y2="11.9393398282203"/>
    <line x1="83.9707325254597" y1="11.9393398282203" x2="84.2813926972397" y2="11.7009618943233"/>
    <line x1="84.2813926972397" y1="11.7009618943233" x2="84.6431641295857" y2="11.5511112605664"/>
    <line x1="84.6431641295857" y1="11.5511112605664" x2="85.0313926972397" y2="11.5"/>
    <line x1="85.0313926972397" y1="11.5" x2="85.4196212648933" y2="11.5511112605664"/>
    <line x1="85.4196212648933" y1="11.5511112605664" x2="85.7813926972397" y2="11.7009618943233"/>
    <line x1="85.7813926972397" y1="11.7009618943233" x2="86.0920528690194" y2="11.9393398282203"/>
    <line x1="86.0920528690194" y1="11.9393398282203" x2="86.3304308029161" y2="12.25"/>
    <line x1="86.3304308029161" y1="12.25" x2="86.4802814366732" y2="12.6117714323462"/>
    <line x1="86.4802814366732" y1="12.6117714323462" x2="86.5313926972394" y2="13.0000000000001"/>
    <line x1="86.5313926972394" y1="13.0000000000001" x2="86.4802814366732" y2="13.3882285676538"/>
    <line x1="86.4802814366732" y1="13.3882285676538" x2="86.3304308029162" y2="13.7500000000001"/>
    <line x1="86.3304308029162" y1="13.7500000000001" x2="86.0920528690194" y2="14.0606601717799"/>
    <line x1="86.0920528690194" y1="14.0606601717799" x2="85.7813926972397" y2="14.2990381056766"/>
    <line x1="85.4196212648933" y1="58.8488887394336" x2="85.0313926972397" y2="58.9000000000001"/>
    <line x1="85.0313926972397" y1="58.9000000000001" x2="84.6431641295857" y2="58.8488887394335"/>
    <line x1="84.6431641295857" y1="58.8488887394335" x2="84.2813926972397" y2="58.6990381056766"/>
    <line x1="84.2813926972397" y1="58.6990381056766" x2="83.9707325254597" y2="58.4606601717799"/>
    <line x1="83.9707325254597" y1="58.4606601717799" x2="83.7323545915629" y2="58.1500000000001"/>
    <line x1="83.7323545915629" y1="58.1500000000001" x2="83.5825039578059" y2="57.7882285676538"/>
    <line x1="83.5825039578059" y1="57.7882285676538" x2="83.5313926972397" y2="57.4"/>
    <line x1="83.5313926972397" y1="57.4" x2="83.5825039578059" y2="57.0117714323463"/>
    <line x1="83.5825039578059" y1="57.0117714323463" x2="83.7323545915629" y2="56.65"/>
    <line x1="83.7323545915629" y1="56.65" x2="83.9707325254597" y2="56.3393398282203"/>
    <line x1="83.9707325254597" y1="56.3393398282203" x2="84.2813926972395" y2="56.1009618943235"/>
    <line x1="84.2813926972395" y1="56.1009618943235" x2="84.6431641295857" y2="55.9511112605665"/>
    <line x1="84.6431641295857" y1="55.9511112605665" x2="85.0313926972395" y2="55.9"/>
    <line x1="85.0313926972395" y1="55.9" x2="85.4196212648933" y2="55.9511112605663"/>
    <line x1="85.4196212648933" y1="55.9511112605663" x2="85.7813926972397" y2="56.1009618943235"/>
    <line x1="85.7813926972397" y1="56.1009618943235" x2="86.0920528690194" y2="56.3393398282203"/>
    <line x1="86.0920528690194" y1="56.3393398282203" x2="86.3304308029162" y2="56.65"/>
    <line x1="86.3304308029162" y1="56.65" x2="86.4802814366732" y2="57.0117714323463"/>
    <line x1="86.4802814366732" y1="57.0117714323463" x2="86.5313926972394" y2="57.4000000000001"/>
    <line x1="86.5313926972394" y1="57.4000000000001" x2="86.4802814366732" y2="57.7882285676538"/>
    <line x1="86.4802814366732" y1="57.7882285676538" x2="86.3304308029162" y2="58.1500000000001"/>
    <line x1="86.3304308029162" y1="58.1500000000001" x2="86.0920528690194" y2="58.4606601717799"/>
    <line x1="86.0920528690194" y1="58.4606601717799" x2="85.7813926972397" y2="58.6990381056767"/>
    <line x1="85.7813926972397" y1="58.6990381056767" x2="85.4196212648933" y2="58.8488887394336"/>
  </g>
  <g id="face1" fill="none" stroke="rgb(0,0,255)" stroke-width="1" stroke-miterlimit="4" stroke-dasharray="none" stroke-linejoin="round" stroke-linecap="round">
    <line x1="10.0" y1="80.3" x2="10.0" y2="386.089878788677"/>
    <line x1="10.0" y1="386.089878788677" x2="97.0000000000001" y2="386.089878788677"/>
    <line x1="97.0000000000001" y1="386.089878788677" x2="97.0000000000001" y2="80.3"/>
    <line x1="97.0000000000001" y1="80.3" x2="90.9999999999927" y2="80.3"/>
    <line x1="90.9999999999927" y1="80.3" x2="15.9999999999999" y2="80.3"/>
    <line x1="15.9999999999999" y1="80.3" x2="10.0" y2="80.3"/>
    <line x1="31.0" y1="85.250004492115" x2="21.0" y2="85.250004492115"/>
    <line x1="21.0" y1="85.250004492115" x2="21.0" y2="82.250004492115"/>
    <line x1="21.0" y1="82.250004492115" x2="31.0" y2="82.250004492115"/>
    <line x1="31.0" y1="82.250004492115" x2="31.0" y2="85.250004492115"/>
    <line x1="76.0" y1="82.2500044921151" x2="86.0" y2="82.2500044921152"/>
    <line x1="86.0" y1="82.2500044921152" x2="86.0" y2="85.2500044921151"/>
    <line x1="86.0" y1="85.2500044921151" x2="76.0" y2="85.2500044921151"/>
    <line x1="76.0" y1="85.2500044921151" x2="76.0" y2="82.2500044921151"/>
    <line x1="38.9829250292521" y1="283.481712491698" x2="39.132775663009" y2="283.119941059352"/>
    <line x1="39.132775663009" y1="283.119941059352" x2="39.3711535969058" y2="282.809280887572"/>
    <line x1="39.3711535969058" y1="282.809280887572" x2="39.6818137686856" y2="282.570902953675"/>
    <line x1="39.6818137686856" y1="282.570902953675" x2="40.0435852010318" y2="282.421052319918"/>
    <line x1="40.0435852010318" y1="282.421052319918" x2="40.4318137686856" y2="282.369941059352"/>
    <line x1="40.4318137686856" y1="282.369941059352" x2="40.8200423363394" y2="282.421052319918"/>
    <line x1="40.8200423363394" y1="282.421052319918" x2="41.1818137686856" y2="282.570902953675"/>
    <line x1="41.1818137686856" y1="282.570902953675" x2="41.4924739404654" y2="282.809280887572"/>
    <line x1="41.4924739404654" y1="282.809280887572" x2="41.7308518743623" y2="283.119941059352"/>
    <line x1="41.7308518743623" y1="283.119941059352" x2="41.8807025081192" y2="283.481712491698"/>
    <line x1="41.8807025081192" y1="283.481712491698" x2="41.9318137686857" y2="283.869941059352"/>
    <line x1="41.9318137686857" y1="283.869941059352" x2="41.8807025081192" y2="284.258169627006"/>
    <line x1="41.8807025081192" y1="284.258169627006" x2="41.7308518743623" y2="284.619941059352"/>
    <line x1="41.7308518743623" y1="284.619941059352" x2="41.4924739404654" y2="284.930601231132"/>
    <line x1="41.4924739404654" y1="284.930601231132" x2="41.1818137686857" y2="285.168979165029"/>
    <line x1="41.1818137686857" y1="285.168979165029" x2="40.8200423363394" y2="285.318829798786"/>
    <line x1="40.8200423363394" y1="285.318829798786" x2="40.4318137686856" y2="285.369941059352"/>
    <line x1="40.4318137686856" y1="285.369941059352" x2="40.0435852010318" y2="285.318829798786"/>
    <line x1="40.0435852010318" y1="285.318829798786" x2="39.6818137686856" y2="285.168979165029"/>
    <line x1="39.6818137686856" y1="285.168979165029" x2="39.3711535969058" y2="284.930601231132"/>
    <line x1="39.3711535969058" y1="284.930601231132" x2="39.1327756630089" y2="284.619941059352"/>
    <line x1="39.1327756630089" y1="284.619941059352" x2="38.982925029252" y2="284.258169627006"/>
    <line x1="38.982925029252" y1="284.258169627006" x2="38.9318137686856" y2="283.869941059352"/>
    <line x1="38.9318137686856" y1="283.869941059352" x2="38.9829250292521" y2="283.481712491698"/>
    <line x1="67.6606601717798" y1="282.789516749838" x2="67.8990381056767" y2="283.100176921618"/>
    <line x1="67.8990381056767" y1="283.100176921618" x2="68.0488887394337" y2="283.461948353964"/>
    <line x1="68.0488887394337" y1="283.461948353964" x2="68.1000000000001" y2="283.850176921618"/>
    <line x1="68.1000000000001" y1="283.850176921618" x2="68.0488887394336" y2="284.238405489272"/>
    <line x1="68.0488887394336" y1="284.238405489272" x2="67.8990381056767" y2="284.600176921618"/>
    <line x1="67.8990381056767" y1="284.600176921618" x2="67.6606601717798" y2="284.910837093398"/>
    <line x1="67.6606601717798" y1="284.910837093398" x2="67.3500000000001" y2="285.149215027295"/>
    <line x1="67.3500000000001" y1="285.149215027295" x2="66.9882285676539" y2="285.299065661051"/>
    <line x1="66.9882285676539" y1="285.299065661051" x2="66.6" y2="285.350176921618"/>
    <line x1="66.6" y1="285.350176921618" x2="66.2117714323462" y2="285.299065661051"/>
    <line x1="66.2117714323462" y1="285.299065661051" x2="65.85" y2="285.149215027295"/>
    <line x1="65.85" y1="285.149215027295" x2="65.5393398282202" y2="284.910837093398"/>
    <line x1="65.5393398282202" y1="284.910837093398" x2="65.3009618943234" y2="284.600176921618"/>
    <line x1="65.3009618943234" y1="284.600176921618" x2="65.1511112605664" y2="284.238405489272"/>
    <line x1="65.1511112605664" y1="284.238405489272" x2="65.1000000000001" y2="283.850176921618"/>
    <line x1="65.1000000000001" y1="283.850176921618" x2="65.1511112605664" y2="283.461948353964"/>
    <line x1="65.1511112605664" y1="283.461948353964" x2="65.3009618943234" y2="283.100176921618"/>
    <line x1="65.3009618943234" y1="283.100176921618" x2="65.5393398282202" y2="282.789516749838"/>
    <line x1="65.5393398282202" y1="282.789516749838" x2="65.85" y2="282.551138815941"/>
    <line x1="65.85" y1="282.551138815941" x2="66.2117714323462" y2="282.401288182184"/>
    <line x1="66.2117714323462" y1="282.401288182184" x2="66.6" y2="282.350176921618"/>
    <line x1="66.6" y1="282.350176921618" x2="66.9882285676539" y2="282.401288182184"/>
    <line x1="66.9882285676539" y1="282.401288182184" x2="67.3500000000001" y2="282.551138815941"/>
    <line x1="67.3500000000001" y1="282.551138815941" x2="67.6606601717798" y2="282.789516749838"/>
    <line x1="58.5" y1="380.089878788677" x2="58.5000000000001" y2="383.089878788677"/>
    <line x1="58.5000000000001" y1="383.089878788677" x2="48.5000000000001" y2="383.089878788677"/>
    <line x1="48.5000000000001" y1="383.089878788677" x2="48.5000000000001" y2="380.089878788677"/>
    <line x1="48.5000000000001" y1="380.089878788677" x2="58.5" y2="380.089878788677"/>
    <line x1="16.0000000000001" y1="133.250004492115" x2="13.0" y2="133.250004492115"/>
    <line x1="13.0" y1="133.250004492115" x2="13.0" y2="123.250004492115"/>
    <line x1="13.0" y1="123.250004492115" x2="16.0000000000001" y2="123.250004492115"/>
    <line x1="16.0000000000001" y1="123.250004492115" x2="16.0000000000001" y2="133.250004492115"/>
    <line x1="48.5000000000001" y1="119.250004492115" x2="48.5000000000001" y2="116.250004492115"/>
    <line x1="48.5000000000001" y1="116.250004492115" x2="58.5000000000001" y2="116.250004492115"/>
    <line x1="58.5000000000001" y1="116.250004492115" x2="58.5000000000001" y2="119.250004492115"/>
    <line x1="58.5000000000001" y1="119.250004492115" x2="48.5000000000001" y2="119.250004492115"/>
    <line x1="94.0" y1="123.250004492115" x2="94.0" y2="133.250004492115"/>
    <line x1="94.0" y1="133.250004492115" x2="91.0" y2="133.250004492115"/>
    <line x1="91.0" y1="133.250004492115" x2="91.0" y2="123.250004492115"/>
    <line x1="91.0" y1="123.250004492115" x2="94.0" y2="123.250004492115"/>
  </g>
  <g id="face2" fill="none" stroke="rgb(0,0,255)" stroke-width="1" stroke-miterlimit="4" stroke-dasharray="none" stroke-linejoin="round" stroke-linecap="round">
    <line x1="13.0" y1="416.11487654262" x2="12.9999999999998" y2="426.139874296562"/>
    <line x1="12.9999999999998" y1="426.139874296562" x2="26.4999999999999" y2="422.839874296562"/>
    <line x1="26.4999999999999" y1="422.839874296562" x2="39.9999999999999" y2="426.139874296562"/>
    <line x1="39.9999999999999" y1="426.139874296562" x2="54.4488607561511" y2="422.839874296562"/>
    <line x1="54.4488607561511" y1="422.839874296562" x2="66.9999999999999" y2="426.139874296562"/>
    <line x1="66.9999999999999" y1="426.139874296562" x2="67.0" y2="416.11487654262"/>
    <line x1="67.0" y1="416.11487654262" x2="70.0" y2="416.11487654262"/>
    <line x1="70.0" y1="416.11487654262" x2="70.0000000000001" y2="406.114876542619"/>
    <line x1="70.0000000000001" y1="406.114876542619" x2="67.0000000000001" y2="406.114876542619"/>
    <line x1="67.0000000000001" y1="406.114876542619" x2="66.9999999999999" y2="396.089878788677"/>
    <line x1="66.9999999999999" y1="396.089878788677" x2="12.9999999999998" y2="396.089878788677"/>
    <line x1="12.9999999999998" y1="396.089878788677" x2="13.0000000000001" y2="406.114876542619"/>
    <line x1="13.0000000000001" y1="406.114876542619" x2="10.0000000000001" y2="406.114876542619"/>
    <line x1="10.0000000000001" y1="406.114876542619" x2="10.0" y2="416.11487654262"/>
    <line x1="10.0" y1="416.11487654262" x2="13.0" y2="416.11487654262"/>
    <line x1="22.9999999999999" y1="399.089878788677" x2="56.9999999999998" y2="399.089878788677"/>
    <line x1="56.9999999999998" y1="399.089878788677" x2="56.9999999999998" y2="402.089878788677"/>
    <line x1="56.9999999999998" y1="402.089878788677" x2="22.9999999999999" y2="402.089878788677"/>
    <line x1="22.9999999999999" y1="402.089878788677" x2="22.9999999999999" y2="399.089878788677"/>
    <line x1="40.7043709305915" y1="411.094902591192" x2="40.2804235140337" y2="411.178665503796"/>
    <line x1="40.2804235140337" y1="411.178665503796" x2="39.8492423183368" y2="411.149848598839"/>
    <line x1="39.8492423183368" y1="411.149848598839" x2="39.4402116294269" y2="411.01041570077"/>
    <line x1="39.4402116294269" y1="411.01041570077" x2="39.0812062127981" y2="410.76986893117"/>
    <line x1="39.0812062127981" y1="410.76986893117" x2="38.7966916943091" y2="410.444601154864"/>
    <line x1="38.7966916943091" y1="410.444601154864" x2="38.6060572682124" y2="410.056778833278"/>
    <line x1="38.6060572682124" y1="410.056778833278" x2="38.5222943556083" y2="409.63283141672"/>
    <line x1="38.5222943556083" y1="409.63283141672" x2="38.551111260566" y2="409.201650221023"/>
    <line x1="38.551111260566" y1="409.201650221023" x2="38.6905441586348" y2="408.792619532113"/>
    <line x1="38.6905441586348" y1="408.792619532113" x2="38.9310909282349" y2="408.433614115484"/>
    <line x1="38.9310909282349" y1="408.433614115484" x2="39.2563587045407" y2="408.149099596995"/>
    <line x1="39.2563587045407" y1="408.149099596995" x2="39.6441810261271" y2="407.958465170899"/>
    <line x1="39.6441810261271" y1="407.958465170899" x2="40.0681284426849" y2="407.874702258294"/>
    <line x1="40.0681284426849" y1="407.874702258294" x2="40.4993096383818" y2="407.903519163252"/>
    <line x1="40.4993096383818" y1="407.903519163252" x2="40.9083403272917" y2="408.042952061321"/>
    <line x1="40.9083403272917" y1="408.042952061321" x2="41.2673457439205" y2="408.283498830921"/>
    <line x1="41.2673457439205" y1="408.283498830921" x2="41.5518602624096" y2="408.608766607227"/>
    <line x1="41.5518602624096" y1="408.608766607227" x2="41.7424946885062" y2="408.996588928813"/>
    <line x1="41.7424946885062" y1="408.996588928813" x2="41.8262576011103" y2="409.420536345371"/>
    <line x1="41.8262576011103" y1="409.420536345371" x2="41.7974406961527" y2="409.851717541068"/>
    <line x1="41.7974406961527" y1="409.851717541068" x2="41.6580077980839" y2="410.260748229978"/>
    <line x1="41.6580077980839" y1="410.260748229978" x2="41.4174610284837" y2="410.619753646607"/>
    <line x1="41.4174610284837" y1="410.619753646607" x2="41.0921932521779" y2="410.904268165096"/>
    <line x1="41.0921932521779" y1="410.904268165096" x2="40.7043709305915" y2="411.094902591192"/>
    <line x1="61.9999999999996" y1="416.18987878868" x2="61.9999999999996" y2="419.18987878868"/>
    <line x1="61.9999999999996" y1="419.18987878868" x2="51.9999999999996" y2="419.18987878868"/>
    <line x1="51.9999999999996" y1="419.18987878868" x2="51.9999999999997" y2="416.189878788681"/>
    <line x1="51.9999999999997" y1="416.189878788681" x2="61.9999999999996" y2="416.18987878868"/>
    <line x1="28.0000000000001" y1="419.154103618057" x2="18.0" y2="419.154103618057"/>
    <line x1="18.0" y1="419.154103618057" x2="18.0" y2="416.189878788679"/>
    <line x1="18.0" y1="416.189878788679" x2="28.0000000000001" y2="416.189878788678"/>
    <line x1="28.0000000000001" y1="416.189878788678" x2="28.0000000000001" y2="419.154103618057"/>
  </g>
  <g id="face3" fill="none" stroke="rgb(0,0,255)" stroke-width="1" stroke-miterlimit="4" stroke-dasharray="none" stroke-linejoin="round" stroke-linecap="round">
    <line x1="10.0" y1="454.139874296562" x2="13.0000000000001" y2="454.139874296562"/>
    <line x1="13.0000000000001" y1="454.139874296562" x2="13.0000000000002" y2="478.139874296562"/>
    <line x1="13.0000000000002" y1="478.139874296562" x2="10.0000000000003" y2="478.139874296562"/>
    <line x1="10.0000000000003" y1="478.139874296562" x2="10.0000000000001" y2="488.139874296562"/>
    <line x1="10.0000000000001" y1="488.139874296562" x2="13.0000000000001" y2="488.139874296562"/>
    <line x1="13.0000000000001" y1="488.139874296562" x2="13.0000000000001" y2="493.139874296562"/>
    <line x1="13.0000000000001" y1="493.139874296562" x2="18.0" y2="493.139874296562"/>
    <line x1="18.0" y1="493.139874296562" x2="18.0" y2="496.139874296562"/>
    <line x1="18.0" y1="496.139874296562" x2="28.0000000000001" y2="496.139874296562"/>
    <line x1="28.0000000000001" y1="496.139874296562" x2="28.0000000000001" y2="493.139874296562"/>
    <line x1="28.0000000000001" y1="493.139874296562" x2="73.0000000000001" y2="493.139874296562"/>
    <line x1="73.0000000000001" y1="493.139874296562" x2="73.0000000000001" y2="496.139874296562"/>
    <line x1="73.0000000000001" y1="496.139874296562" x2="83.0" y2="496.139874296562"/>
    <line x1="83.0" y1="496.139874296562" x2="83.0" y2="493.139874296562"/>
    <line x1="83.0" y1="493.139874296562" x2="88.0000000000001" y2="493.139874296562"/>
    <line x1="88.0000000000001" y1="493.139874296562" x2="88.0000000000001" y2="488.139874296562"/>
    <line x1="88.0000000000001" y1="488.139874296562" x2="91.0" y2="488.139874296562"/>
    <line x1="91.0" y1="488.139874296562" x2="91.0" y2="478.139874296562"/>
    <line x1="91.0" y1="478.139874296562" x2="88.0000000000001" y2="478.139874296562"/>
    <line x1="88.0000000000001" y1="478.139874296562" x2="88.0000000000001" y2="454.139874296562"/>
    <line x1="88.0000000000001" y1="454.139874296562" x2="91.0" y2="454.139874296562"/>
    <line x1="91.0" y1="454.139874296562" x2="91.0" y2="444.139874296562"/>
    <line x1="91.0" y1="444.139874296562" x2="88.0000000000001" y2="444.139874296562"/>
    <line x1="88.0000000000001" y1="444.139874296562" x2="88.0000000000001" y2="439.139874296562"/>
    <line x1="88.0000000000001" y1="439.139874296562" x2="83.0" y2="439.139874296562"/>
    <line x1="83.0" y1="439.139874296562" x2="83.0" y2="436.139874296562"/>
    <line x1="83.0" y1="436.139874296562" x2="73.0000000000001" y2="436.139874296562"/>
    <line x1="73.0000000000001" y1="436.139874296562" x2="73.0000000000001" y2="439.139874296562"/>
    <line x1="73.0000000000001" y1="439.139874296562" x2="28.0000000000001" y2="439.139874296562"/>
    <line x1="28.0000000000001" y1="439.139874296562" x2="28.0000000000001" y2="436.139874296562"/>
    <line x1="28.0000000000001" y1="436.139874296562" x2="18.0" y2="436.139874296562"/>
    <line x1="18.0" y1="436.139874296562" x2="18.0" y2="439.139874296562"/>
    <line x1="18.0" y1="439.139874296562" x2="13.0000000000001" y2="439.139874296562"/>
    <line x1="13.0000000000001" y1="439.139874296562" x2="13.0000000000001" y2="444.139874296562"/>
    <line x1="13.0000000000001" y1="444.139874296562" x2="10.0" y2="444.139874296562"/>
    <line x1="10.0" y1="444.139874296562" x2="10.0" y2="454.139874296562"/>
    <line x1="49.8529523872438" y1="463.725059730839" x2="50.5" y2="463.639874296562"/>
    <line x1="50.5" y1="463.639874296562" x2="51.1470476127564" y2="463.725059730839"/>
    <line x1="51.1470476127564" y1="463.725059730839" x2="51.7500000000001" y2="463.974810787101"/>
    <line x1="51.7500000000001" y1="463.974810787101" x2="52.2677669529664" y2="464.372107343595"/>
    <line x1="52.2677669529664" y1="464.372107343595" x2="52.6650635094612" y2="464.889874296562"/>
    <line x1="52.6650635094612" y1="464.889874296562" x2="52.9148145657227" y2="465.492826683806"/>
    <line x1="52.9148145657227" y1="465.492826683806" x2="53.0" y2="466.139874296562"/>
    <line x1="53.0" y1="466.139874296562" x2="52.9148145657227" y2="466.786921909318"/>
    <line x1="52.9148145657227" y1="466.786921909318" x2="52.6650635094612" y2="467.389874296562"/>
    <line x1="52.6650635094612" y1="467.389874296562" x2="52.2677669529664" y2="467.907641249528"/>
    <line x1="52.2677669529664" y1="467.907641249528" x2="51.7500000000001" y2="468.304937806023"/>
    <line x1="51.7500000000001" y1="468.304937806023" x2="51.1470476127564" y2="468.554688862284"/>
    <line x1="51.1470476127564" y1="468.554688862284" x2="50.5" y2="468.639874296562"/>
    <line x1="50.5" y1="468.639874296562" x2="49.8529523872438" y2="468.554688862284"/>
    <line x1="49.8529523872438" y1="468.554688862284" x2="49.25" y2="468.304937806023"/>
    <line x1="49.25" y1="468.304937806023" x2="48.7322330470337" y2="467.907641249528"/>
    <line x1="48.7322330470337" y1="467.907641249528" x2="48.334936490539" y2="467.389874296562"/>
    <line x1="48.334936490539" y1="467.389874296562" x2="48.0851854342774" y2="466.786921909318"/>
    <line x1="48.0851854342774" y1="466.786921909318" x2="48.0" y2="466.139874296562"/>
    <line x1="48.0" y1="466.139874296562" x2="48.0851854342774" y2="465.492826683806"/>
    <line x1="48.0851854342774" y1="465.492826683806" x2="48.334936490539" y2="464.889874296562"/>
    <line x1="48.334936490539" y1="464.889874296562" x2="48.7322330470337" y2="464.372107343595"/>
    <line x1="48.7322330470337" y1="464.372107343595" x2="49.25" y2="463.974810787101"/>
    <line x1="49.25" y1="463.974810787101" x2="49.8529523872438" y2="463.725059730839"/>
  </g>
  <g id="face4" fill="none" stroke="rgb(0,0,255)" stroke-width="1" stroke-miterlimit="4" stroke-dasharray="none" stroke-linejoin="round" stroke-linecap="round">
    <line x1="10.0" y1="526.139874296562" x2="56.0" y2="526.139874296562"/>
    <line x1="56.0" y1="526.139874296562" x2="56.0" y2="506.139874296562"/>
    <line x1="56.0" y1="506.139874296562" x2="10.0" y2="506.139874296562"/>
    <line x1="10.0" y1="506.139874296562" x2="10.0" y2="526.139874296562"/>
    <line x1="46.5585093777673" y1="517.438912402238" x2="46.1967379454212" y2="517.588763035995"/>
    <line x1="46.1967379454212" y1="517.588763035995" x2="45.8085093777673" y2="517.639874296562"/>
    <line x1="45.8085093777673" y1="517.639874296562" x2="45.4202808101136" y2="517.588763035995"/>
    <line x1="45.4202808101136" y1="517.588763035995" x2="45.0585093777673" y2="517.438912402238"/>
    <line x1="45.0585093777673" y1="517.438912402238" x2="44.7478492059876" y2="517.200534468342"/>
    <line x1="44.7478492059876" y1="517.200534468342" x2="44.5094712720907" y2="516.889874296562"/>
    <line x1="44.5094712720907" y1="516.889874296562" x2="44.3596206383338" y2="516.528102864216"/>
    <line x1="44.3596206383338" y1="516.528102864216" x2="44.3085093777673" y2="516.139874296562"/>
    <line x1="44.3085093777673" y1="516.139874296562" x2="44.3596206383338" y2="515.751645728908"/>
    <line x1="44.3596206383338" y1="515.751645728908" x2="44.5094712720907" y2="515.389874296562"/>
    <line x1="44.5094712720907" y1="515.389874296562" x2="44.7478492059876" y2="515.079214124782"/>
    <line x1="44.7478492059876" y1="515.079214124782" x2="45.0585093777673" y2="514.840836190885"/>
    <line x1="45.0585093777673" y1="514.840836190885" x2="45.4202808101136" y2="514.690985557128"/>
    <line x1="45.4202808101136" y1="514.690985557128" x2="45.8085093777673" y2="514.639874296562"/>
    <line x1="45.8085093777673" y1="514.639874296562" x2="46.1967379454212" y2="514.690985557128"/>
    <line x1="46.1967379454212" y1="514.690985557128" x2="46.5585093777673" y2="514.840836190885"/>
    <line x1="46.5585093777673" y1="514.840836190885" x2="46.8691695495472" y2="515.079214124782"/>
    <line x1="46.8691695495472" y1="515.079214124782" x2="47.107547483444" y2="515.389874296562"/>
    <line x1="47.107547483444" y1="515.389874296562" x2="47.257398117201" y2="515.751645728908"/>
    <line x1="47.257398117201" y1="515.751645728908" x2="47.3085093777673" y2="516.139874296562"/>
    <line x1="47.3085093777673" y1="516.139874296562" x2="47.257398117201" y2="516.528102864216"/>
    <line x1="47.257398117201" y1="516.528102864216" x2="47.107547483444" y2="516.889874296562"/>
    <line x1="47.107547483444" y1="516.889874296562" x2="46.8691695495472" y2="517.200534468342"/>
    <line x1="46.8691695495472" y1="517.200534468342" x2="46.5585093777673" y2="517.438912402238"/>
    <line x1="21.5484900822587" y1="515.389874296562" x2="21.6983407160157" y2="515.751645728908"/>
    <line x1="21.6983407160157" y1="515.751645728908" x2="21.7494519765821" y2="516.139874296562"/>
    <line x1="21.7494519765821" y1="516.139874296562" x2="21.6983407160157" y2="516.528102864216"/>
    <line x1="21.6983407160157" y1="516.528102864216" x2="21.5484900822587" y2="516.889874296562"/>
    <line x1="21.5484900822587" y1="516.889874296562" x2="21.3101121483618" y2="517.200534468342"/>
    <line x1="21.3101121483618" y1="517.200534468342" x2="20.999451976582" y2="517.438912402238"/>
    <line x1="20.999451976582" y1="517.438912402238" x2="20.6376805442358" y2="517.588763035995"/>
    <line x1="20.6376805442358" y1="517.588763035995" x2="20.249451976582" y2="517.639874296562"/>
    <line x1="20.249451976582" y1="517.639874296562" x2="19.8612234089282" y2="517.588763035995"/>
    <line x1="19.8612234089282" y1="517.588763035995" x2="19.499451976582" y2="517.438912402238"/>
    <line x1="19.499451976582" y1="517.438912402238" x2="19.1887918048022" y2="517.200534468342"/>
    <line x1="19.1887918048022" y1="517.200534468342" x2="18.9504138709053" y2="516.889874296562"/>
    <line x1="18.9504138709053" y1="516.889874296562" x2="18.8005632371484" y2="516.528102864216"/>
    <line x1="18.8005632371484" y1="516.528102864216" x2="18.749451976582" y2="516.139874296562"/>
    <line x1="18.749451976582" y1="516.139874296562" x2="18.8005632371484" y2="515.751645728908"/>
    <line x1="18.8005632371484" y1="515.751645728908" x2="18.9504138709053" y2="515.389874296562"/>
    <line x1="18.9504138709053" y1="515.389874296562" x2="19.1887918048022" y2="515.079214124782"/>
    <line x1="19.1887918048022" y1="515.079214124782" x2="19.499451976582" y2="514.840836190885"/>
    <line x1="19.499451976582" y1="514.840836190885" x2="19.8612234089282" y2="514.690985557128"/>
    <line x1="19.8612234089282" y1="514.690985557128" x2="20.249451976582" y2="514.639874296562"/>
    <line x1="20.249451976582" y1="514.639874296562" x2="20.6376805442358" y2="514.690985557128"/>
    <line x1="20.6376805442358" y1="514.690985557128" x2="20.999451976582" y2="514.840836190885"/>
    <line x1="20.999451976582" y1="514.840836190885" x2="21.3101121483618" y2="515.079214124782"/>
    <line x1="21.3101121483618" y1="515.079214124782" x2="21.5484900822587" y2="515.389874296562"/>
  </g>
  <g id="face5" fill="none" stroke="rgb(0,0,255)" stroke-width="1" stroke-miterlimit="4" stroke-dasharray="none" stroke-linejoin="round" stroke-linecap="round">
    <line x1="45.4999999999999" y1="596.139874296562" x2="50.5" y2="596.139874296562"/>
    <line x1="50.5" y1="596.139874296562" x2="50.5" y2="559.639874296562"/>
    <line x1="50.5" y1="559.639874296562" x2="40.4999999999999" y2="559.639874296562"/>
    <line x1="40.4999999999999" y1="559.639874296562" x2="40.4999999999999" y2="551.639874296562"/>
    <line x1="40.4999999999999" y1="551.639874296562" x2="50.4999999999999" y2="551.639874296562"/>
    <line x1="50.4999999999999" y1="551.639874296562" x2="50.5" y2="536.139874296562"/>
    <line x1="50.5" y1="536.139874296562" x2="45.4999999999999" y2="536.139874296562"/>
    <line x1="45.4999999999999" y1="536.139874296562" x2="45.4999999999999" y2="539.139874296562"/>
    <line x1="45.4999999999999" y1="539.139874296562" x2="12.9999999999999" y2="539.139874296562"/>
    <line x1="12.9999999999999" y1="539.139874296562" x2="12.9999999999999" y2="561.139874296562"/>
    <line x1="12.9999999999999" y1="561.139874296562" x2="10.0" y2="561.139874296562"/>
    <line x1="10.0" y1="561.139874296562" x2="10.0" y2="571.139874296562"/>
    <line x1="10.0" y1="571.139874296562" x2="12.9999999999999" y2="571.139874296562"/>
    <line x1="12.9999999999999" y1="571.139874296562" x2="12.9999999999999" y2="593.139874296562"/>
    <line x1="12.9999999999999" y1="593.139874296562" x2="45.4999999999999" y2="593.139874296562"/>
    <line x1="45.4999999999999" y1="593.139874296562" x2="45.4999999999999" y2="596.139874296562"/>
  </g>
  <g id="face6" fill="none" stroke="rgb(0,0,255)" stroke-width="1" stroke-miterlimit="4" stroke-dasharray="none" stroke-linejoin="round" stroke-linecap="round">
    <line x1="10.0" y1="606.139874296562" x2="10.0" y2="636.189869804447"/>
    <line x1="10.0" y1="636.189869804447" x2="15.9999999999999" y2="636.189869804447"/>
    <line x1="15.9999999999999" y1="636.189869804447" x2="90.9999999999927" y2="636.189869804447"/>
    <line x1="90.9999999999927" y1="636.189869804447" x2="97.0000000000001" y2="636.189869804447"/>
    <line x1="97.0000000000001" y1="636.189869804447" x2="97.0000000000001" y2="606.139874296562"/>
    <line x1="97.0000000000001" y1="606.139874296562" x2="10.0" y2="606.139874296562"/>
    <line x1="31.0" y1="609.139874296562" x2="31.0" y2="612.139874296562"/>
    <line x1="31.0" y1="612.139874296562" x2="21.0" y2="612.139874296562"/>
    <line x1="21.0" y1="612.139874296562" x2="21.0" y2="609.139874296562"/>
    <line x1="21.0" y1="609.139874296562" x2="31.0" y2="609.139874296562"/>
    <line x1="86.0000000000001" y1="612.139874296562" x2="76.0" y2="612.139874296562"/>
    <line x1="76.0" y1="612.139874296562" x2="76.0" y2="609.139874296562"/>
    <line x1="76.0" y1="609.139874296562" x2="86.0000000000001" y2="609.139874296562"/>
    <line x1="86.0000000000001" y1="609.139874296562" x2="86.0000000000001" y2="612.139874296562"/>
    <line x1="52.0511112605664" y1="611.028102864215" x2="52.0" y2="610.639874296562"/>
    <line x1="52.0" y1="610.639874296562" x2="52.0511112605664" y2="610.251645728908"/>
    <line x1="52.0511112605664" y1="610.251645728908" x2="52.2009618943234" y2="609.889874296562"/>
    <line x1="52.2009618943234" y1="609.889874296562" x2="52.4393398282202" y2="609.579214124782"/>
    <line x1="52.4393398282202" y1="609.579214124782" x2="52.75" y2="609.340836190885"/>
    <line x1="52.75" y1="609.340836190885" x2="53.1117714323462" y2="609.190985557128"/>
    <line x1="53.1117714323462" y1="609.190985557128" x2="53.5" y2="609.139874296562"/>
    <line x1="53.5" y1="609.139874296562" x2="53.8882285676538" y2="609.190985557128"/>
    <line x1="53.8882285676538" y1="609.190985557128" x2="54.25" y2="609.340836190885"/>
    <line x1="54.25" y1="609.340836190885" x2="54.5606601717798" y2="609.579214124782"/>
    <line x1="54.5606601717798" y1="609.579214124782" x2="54.7990381056766" y2="609.889874296562"/>
    <line x1="54.7990381056766" y1="609.889874296562" x2="54.9488887394336" y2="610.251645728908"/>
    <line x1="54.9488887394336" y1="610.251645728908" x2="55.0000000000001" y2="610.639874296562"/>
    <line x1="55.0000000000001" y1="610.639874296562" x2="54.9488887394336" y2="611.028102864215"/>
    <line x1="54.9488887394336" y1="611.028102864215" x2="54.7990381056766" y2="611.389874296562"/>
    <line x1="54.7990381056766" y1="611.389874296562" x2="54.5606601717798" y2="611.700534468342"/>
    <line x1="54.5606601717798" y1="611.700534468342" x2="54.25" y2="611.938912402238"/>
    <line x1="54.25" y1="611.938912402238" x2="53.8882285676538" y2="612.088763035995"/>
    <line x1="53.8882285676538" y1="612.088763035995" x2="53.5" y2="612.139874296562"/>
    <line x1="53.5" y1="612.139874296562" x2="53.1117714323462" y2="612.088763035995"/>
    <line x1="53.1117714323462" y1="612.088763035995" x2="52.75" y2="611.938912402238"/>
    <line x1="52.75" y1="611.938912402238" x2="52.4393398282202" y2="611.700534468342"/>
    <line x1="52.4393398282202" y1="611.700534468342" x2="52.2009618943234" y2="611.389874296562"/>
    <line x1="52.2009618943234" y1="611.389874296562" x2="52.0511112605664" y2="611.028102864215"/>
    <line x1="91.0" y1="616.164872050504" x2="94.0000000000001" y2="616.164872050504"/>
    <line x1="94.0000000000001" y1="616.164872050504" x2="94.0000000000001" y2="626.164872050505"/>
    <line x1="94.0000000000001" y1="626.164872050505" x2="91.0" y2="626.164872050504"/>
    <line x1="91.0" y1="626.164872050504" x2="91.0" y2="616.164872050504"/>
    <line x1="13.0" y1="616.164872050504" x2="16.0000000000001" y2="616.164872050504"/>
    <line x1="16.0000000000001" y1="616.164872050504" x2="16.0000000000001" y2="626.164872050504"/>
    <line x1="16.0000000000001" y1="626.164872050504" x2="13.0" y2="626.164872050504"/>
    <line x1="13.0" y1="626.164872050504" x2="13.0" y2="616.164872050504"/>
    <line x1="86.000000000001" y1="629.204099125943" x2="76.0000000000011" y2="629.204099125943"/>
    <line x1="76.0000000000011" y1="629.204099125943" x2="76.0000000000012" y2="626.204099125942"/>
    <line x1="76.0000000000012" y1="626.204099125942" x2="86.000000000001" y2="626.204099125943"/>
    <line x1="86.000000000001" y1="626.204099125943" x2="86.000000000001" y2="629.204099125943"/>
    <line x1="31.0000000000011" y1="626.204099125942" x2="31.0000000000011" y2="629.204099125943"/>
    <line x1="31.0000000000011" y1="629.204099125943" x2="21.000000000001" y2="629.204099125943"/>
    <line x1="21.000000000001" y1="629.204099125943" x2="21.000000000001" y2="626.204099125942"/>
    <line x1="21.000000000001" y1="626.204099125942" x2="31.0000000000011" y2="626.204099125942"/>
  </g>
  <g id="face7" fill="none" stroke="rgb(0,0,255)" stroke-width="1" stroke-miterlimit="4" stroke-dasharray="none" stroke-linejoin="round" stroke-linecap="round">
    <line x1="25.5511392438489" y1="646.189869804447" x2="12.9999999999999" y2="649.489869804447"/>
    <line x1="12.9999999999999" y1="649.489869804447" x2="13.0" y2="692.439874296562"/>
    <line x1="13.0" y1="692.439874296562" x2="10.0" y2="692.439874296562"/>
    <line x1="10.0" y1="692.439874296562" x2="10.0" y2="702.439874296562"/>
    <line x1="10.0" y1="702.439874296562" x2="13.0" y2="702.439874296562"/>
    <line x1="13.0" y1="702.439874296562" x2="13.0" y2="955.279748593124"/>
    <line x1="13.0" y1="955.279748593124" x2="67.0" y2="955.279748593124"/>
    <line x1="67.0" y1="955.279748593124" x2="67.0" y2="702.439874296562"/>
    <line x1="67.0" y1="702.439874296562" x2="70.0000000000001" y2="702.439874296562"/>
    <line x1="70.0000000000001" y1="702.439874296562" x2="70.0000000000001" y2="692.439874296562"/>
    <line x1="70.0000000000001" y1="692.439874296562" x2="67.0" y2="692.439874296562"/>
    <line x1="67.0" y1="692.439874296562" x2="67.0000000000002" y2="649.489869804447"/>
    <line x1="67.0000000000002" y1="649.489869804447" x2="53.5000000000002" y2="646.189869804447"/>
    <line x1="53.5000000000002" y1="646.189869804447" x2="40.0" y2="649.489869804447"/>
    <line x1="40.0" y1="649.489869804447" x2="25.5511392438489" y2="646.189869804447"/>
    <line x1="61.0000000000003" y1="677.439874296562" x2="58.0000000000001" y2="677.439874296562"/>
    <line x1="58.0000000000001" y1="677.439874296562" x2="58.0000000000001" y2="667.439874296562"/>
    <line x1="58.0000000000001" y1="667.439874296562" x2="60.9999997879051" y2="667.439874296562"/>
    <line x1="60.9999997879051" y1="667.439874296562" x2="60.9999997879051" y2="659.439874296562"/>
    <line x1="60.9999997879051" y1="659.439874296562" x2="64.0000000000002" y2="659.439874296562"/>
    <line x1="64.0000000000002" y1="659.439874296562" x2="64.0000000000002" y2="669.439874296562"/>
    <line x1="64.0000000000002" y1="669.439874296562" x2="61.0000000000003" y2="669.439874296562"/>
    <line x1="61.0000000000003" y1="669.439874296562" x2="61.0000000000003" y2="677.439874296562"/>
    <line x1="62.0000000000003" y1="654.439874296562" x2="52.0000000000002" y2="654.439874296562"/>
    <line x1="52.0000000000002" y1="654.439874296562" x2="52.0000000000002" y2="651.439874296562"/>
    <line x1="52.0000000000002" y1="651.439874296562" x2="62.0000000000003" y2="651.439874296562"/>
    <line x1="62.0000000000003" y1="651.439874296562" x2="62.0000000000003" y2="654.439874296562"/>
    <line x1="27.9999999999997" y1="651.439874296562" x2="27.9999999999997" y2="654.439874296562"/>
    <line x1="27.9999999999997" y1="654.439874296562" x2="17.9999999999998" y2="654.439874296562"/>
    <line x1="17.9999999999998" y1="654.439874296562" x2="17.9999999999998" y2="651.439874296562"/>
    <line x1="17.9999999999998" y1="651.439874296562" x2="27.9999999999997" y2="651.439874296562"/>
    <line x1="41.4488887394333" y1="652.551645728908" x2="41.4999999999996" y2="652.939874296562"/>
    <line x1="41.4999999999996" y1="652.939874296562" x2="41.4488887394333" y2="653.328102864216"/>
    <line x1="41.4488887394333" y1="653.328102864216" x2="41.2990381056764" y2="653.689874296562"/>
    <line x1="41.2990381056764" y1="653.689874296562" x2="41.0606601717794" y2="654.000534468342"/>
    <line x1="41.0606601717794" y1="654.000534468342" x2="40.7499999999996" y2="654.238912402238"/>
    <line x1="40.7499999999996" y1="654.238912402238" x2="40.3882285676535" y2="654.388763035995"/>
    <line x1="40.3882285676535" y1="654.388763035995" x2="39.9999999999996" y2="654.439874296562"/>
    <line x1="39.9999999999996" y1="654.439874296562" x2="39.6117714323459" y2="654.388763035995"/>
    <line x1="39.6117714323459" y1="654.388763035995" x2="39.2499999999996" y2="654.238912402238"/>
    <line x1="39.2499999999996" y1="654.238912402238" x2="38.9393398282198" y2="654.000534468342"/>
    <line x1="38.9393398282198" y1="654.000534468342" x2="38.700961894323" y2="653.689874296562"/>
    <line x1="38.700961894323" y1="653.689874296562" x2="38.5511112605661" y2="653.328102864216"/>
    <line x1="38.5511112605661" y1="653.328102864216" x2="38.4999999999996" y2="652.939874296562"/>
    <line x1="38.4999999999996" y1="652.939874296562" x2="38.5511112605661" y2="652.551645728908"/>
    <line x1="38.5511112605661" y1="652.551645728908" x2="38.700961894323" y2="652.189874296562"/>
    <line x1="38.700961894323" y1="652.189874296562" x2="38.9393398282198" y2="651.879214124782"/>
    <line x1="38.9393398282198" y1="651.879214124782" x2="39.2499999999996" y2="651.640836190885"/>
    <line x1="39.2499999999996" y1="651.640836190885" x2="39.6117714323459" y2="651.490985557128"/>
    <line x1="39.6117714323459" y1="651.490985557128" x2="39.9999999999996" y2="651.439874296562"/>
    <line x1="39.9999999999996" y1="651.439874296562" x2="40.3882285676535" y2="651.490985557128"/>
    <line x1="40.3882285676535" y1="651.490985557128" x2="40.7499999999996" y2="651.640836190885"/>
    <line x1="40.7499999999996" y1="651.640836190885" x2="41.0606601717794" y2="651.879214124782"/>
    <line x1="41.0606601717794" y1="651.879214124782" x2="41.2990381056764" y2="652.189874296562"/>
    <line x1="41.2990381056764" y1="652.189874296562" x2="41.4488887394333" y2="652.551645728908"/>
    <line x1="59.8079689783231" y1="908.714420301921" x2="31.31156569651" y2="937.210823583744"/>
    <line x1="31.31156569651" y1="937.210823583744" x2="29.19024535295" y2="935.089503240185"/>
    <line x1="29.19024535295" y1="935.089503240185" x2="57.6866486347629" y2="906.593099958362"/>
    <line x1="57.6866486347629" y1="906.593099958362" x2="59.8079689783231" y2="908.714420301921"/>
    <line x1="45.0000000000001" y1="949.279748593124" x2="45.0000000000001" y2="952.279748593124"/>
    <line x1="45.0000000000001" y1="952.279748593124" x2="35.0" y2="952.279748593124"/>
    <line x1="35.0" y1="952.279748593124" x2="35.0" y2="949.279748593124"/>
    <line x1="35.0" y1="949.279748593124" x2="45.0000000000001" y2="949.279748593124"/>
  </g>
  <g id="face8" fill="none" stroke="rgb(0,0,255)" stroke-width="1" stroke-miterlimit="4" stroke-dasharray="none" stroke-linejoin="round" stroke-linecap="round">
    <line x1="25.5511392438489" y1="965.279748593124" x2="12.9999999999999" y2="968.579748593124"/>
    <line x1="12.9999999999999" y1="968.579748593124" x2="13.0" y2="1011.52975308524"/>
    <line x1="13.0" y1="1011.52975308524" x2="10.0" y2="1011.52975308524"/>
    <line x1="10.0" y1="1011.52975308524" x2="10.0" y2="1021.52975308524"/>
    <line x1="10.0" y1="1021.52975308524" x2="13.0" y2="1021.52975308524"/>
    <line x1="13.0" y1="1021.52975308524" x2="13.0" y2="1274.3696273818"/>
    <line x1="13.0" y1="1274.3696273818" x2="67.0000000000001" y2="1274.3696273818"/>
    <line x1="67.0000000000001" y1="1274.3696273818" x2="67.0000000000001" y2="1021.52975308524"/>
    <line x1="67.0000000000001" y1="1021.52975308524" x2="70.0" y2="1021.52975308524"/>
    <line x1="70.0" y1="1021.52975308524" x2="70.0" y2="1011.52975308524"/>
    <line x1="70.0" y1="1011.52975308524" x2="67.0000000000001" y2="1011.52975308524"/>
    <line x1="67.0000000000001" y1="1011.52975308524" x2="67.0000000000003" y2="968.579748593124"/>
    <line x1="67.0000000000003" y1="968.579748593124" x2="53.5000000000002" y2="965.279748593124"/>
    <line x1="53.5000000000002" y1="965.279748593124" x2="40.0" y2="968.579748593124"/>
    <line x1="40.0" y1="968.579748593124" x2="25.5511392438489" y2="965.279748593124"/>
    <line x1="61.0000000000003" y1="996.529753085239" x2="58.0000000000001" y2="996.529753085239"/>
    <line x1="58.0000000000001" y1="996.529753085239" x2="58.0000000000001" y2="986.529753085239"/>
    <line x1="58.0000000000001" y1="986.529753085239" x2="60.9999997879051" y2="986.529753085239"/>
    <line x1="60.9999997879051" y1="986.529753085239" x2="60.9999997879051" y2="978.529753085239"/>
    <line x1="60.9999997879051" y1="978.529753085239" x2="64.0000000000002" y2="978.529753085239"/>
    <line x1="64.0000000000002" y1="978.529753085239" x2="64.0000000000002" y2="988.529753085239"/>
    <line x1="64.0000000000002" y1="988.529753085239" x2="61.0000000000003" y2="988.529753085239"/>
    <line x1="61.0000000000003" y1="988.529753085239" x2="61.0000000000003" y2="996.529753085239"/>
    <line x1="62.0000000000003" y1="973.529753085239" x2="52.0000000000002" y2="973.529753085239"/>
    <line x1="52.0000000000002" y1="973.529753085239" x2="52.0000000000002" y2="970.529753085239"/>
    <line x1="52.0000000000002" y1="970.529753085239" x2="62.0000000000003" y2="970.529753085239"/>
    <line x1="62.0000000000003" y1="970.529753085239" x2="62.0000000000003" y2="973.529753085239"/>
    <line x1="27.9999999999996" y1="970.529753085239" x2="27.9999999999996" y2="973.529753085239"/>
    <line x1="27.9999999999996" y1="973.529753085239" x2="17.9999999999998" y2="973.529753085239"/>
    <line x1="17.9999999999998" y1="973.529753085239" x2="17.9999999999998" y2="970.529753085239"/>
    <line x1="17.9999999999998" y1="970.529753085239" x2="27.9999999999996" y2="970.529753085239"/>
    <line x1="41.4488887394333" y1="971.641524517585" x2="41.4999999999997" y2="972.029753085239"/>
    <line x1="41.4999999999997" y1="972.029753085239" x2="41.4488887394333" y2="972.417981652892"/>
    <line x1="41.4488887394333" y1="972.417981652892" x2="41.2990381056764" y2="972.779753085239"/>
    <line x1="41.2990381056764" y1="972.779753085239" x2="41.0606601717794" y2="973.090413257018"/>
    <line x1="41.0606601717794" y1="973.090413257018" x2="40.7499999999996" y2="973.328791190915"/>
    <line x1="40.7499999999996" y1="973.328791190915" x2="40.3882285676535" y2="973.478641824672"/>
    <line x1="40.3882285676535" y1="973.478641824672" x2="39.9999999999996" y2="973.529753085239"/>
    <line x1="39.9999999999996" y1="973.529753085239" x2="39.6117714323459" y2="973.478641824672"/>
    <line x1="39.6117714323459" y1="973.478641824672" x2="39.2499999999996" y2="973.328791190915"/>
    <line x1="39.2499999999996" y1="973.328791190915" x2="38.9393398282198" y2="973.090413257018"/>
    <line x1="38.9393398282198" y1="973.090413257018" x2="38.7009618943231" y2="972.779753085239"/>
    <line x1="38.7009618943231" y1="972.779753085239" x2="38.5511112605661" y2="972.417981652892"/>
    <line x1="38.5511112605661" y1="972.417981652892" x2="38.4999999999996" y2="972.029753085239"/>
    <line x1="38.4999999999996" y1="972.029753085239" x2="38.5511112605661" y2="971.641524517585"/>
    <line x1="38.5511112605661" y1="971.641524517585" x2="38.7009618943231" y2="971.279753085239"/>
    <line x1="38.7009618943231" y1="971.279753085239" x2="38.9393398282198" y2="970.969092913459"/>
    <line x1="38.9393398282198" y1="970.969092913459" x2="39.2499999999996" y2="970.730714979562"/>
    <line x1="39.2499999999996" y1="970.730714979562" x2="39.6117714323459" y2="970.580864345805"/>
    <line x1="39.6117714323459" y1="970.580864345805" x2="39.9999999999996" y2="970.529753085239"/>
    <line x1="39.9999999999996" y1="970.529753085239" x2="40.3882285676535" y2="970.580864345805"/>
    <line x1="40.3882285676535" y1="970.580864345805" x2="40.7499999999996" y2="970.730714979562"/>
    <line x1="40.7499999999996" y1="970.730714979562" x2="41.0606601717794" y2="970.969092913459"/>
    <line x1="41.0606601717794" y1="970.969092913459" x2="41.2990381056764" y2="971.279753085239"/>
    <line x1="41.2990381056764" y1="971.279753085239" x2="41.4488887394333" y2="971.641524517585"/>
    <line x1="59.8079689783231" y1="1227.8042990906" x2="31.31156569651" y2="1256.30070237242"/>
    <line x1="31.31156569651" y1="1256.30070237242" x2="29.19024535295" y2="1254.17938202886"/>
    <line x1="29.19024535295" y1="1254.17938202886" x2="57.6866486347629" y2="1225.68297874704"/>
    <line x1="57.6866486347629" y1="1225.68297874704" x2="59.8079689783231" y2="1227.8042990906"/>
    <line x1="45.0" y1="1268.3696273818" x2="45.0000000000001" y2="1271.3696273818"/>
    <line x1="45.0000000000001" y1="1271.3696273818" x2="35.0" y2="1271.3696273818"/>
    <line x1="35.0" y1="1271.3696273818" x2="35.0" y2="1268.3696273818"/>
    <line x1="35.0" y1="1268.3696273818" x2="45.0" y2="1268.3696273818"/>
  </g>
  <g id="face9" fill="none" stroke="rgb(0,0,255)" stroke-width="1" stroke-miterlimit="4" stroke-dasharray="none" stroke-linejoin="round" stroke-linecap="round">
    <line x1="13.0" y1="1304.39462513574" x2="12.9999999999998" y2="1314.41962288969"/>
    <line x1="12.9999999999998" y1="1314.41962288969" x2="26.4999999999999" y2="1311.11962288969"/>
    <line x1="26.4999999999999" y1="1311.11962288969" x2="39.9999999999999" y2="1314.41962288969"/>
    <line x1="39.9999999999999" y1="1314.41962288969" x2="54.4488607561511" y2="1311.11962288969"/>
    <line x1="54.4488607561511" y1="1311.11962288969" x2="66.9999999999999" y2="1314.41962288969"/>
    <line x1="66.9999999999999" y1="1314.41962288969" x2="67.0" y2="1304.39462513574"/>
    <line x1="67.0" y1="1304.39462513574" x2="70.0" y2="1304.39462513574"/>
    <line x1="70.0" y1="1304.39462513574" x2="70.0000000000001" y2="1294.39462513574"/>
    <line x1="70.0000000000001" y1="1294.39462513574" x2="67.0000000000001" y2="1294.39462513574"/>
    <line x1="67.0000000000001" y1="1294.39462513574" x2="66.9999999999999" y2="1284.3696273818"/>
    <line x1="66.9999999999999" y1="1284.3696273818" x2="12.9999999999998" y2="1284.3696273818"/>
    <line x1="12.9999999999998" y1="1284.3696273818" x2="13.0000000000001" y2="1294.39462513574"/>
    <line x1="13.0000000000001" y1="1294.39462513574" x2="10.0000000000001" y2="1294.39462513574"/>
    <line x1="10.0000000000001" y1="1294.39462513574" x2="10.0" y2="1304.39462513574"/>
    <line x1="10.0" y1="1304.39462513574" x2="13.0" y2="1304.39462513574"/>
    <line x1="22.9999999999999" y1="1287.3696273818" x2="56.9999999999998" y2="1287.3696273818"/>
    <line x1="56.9999999999998" y1="1287.3696273818" x2="56.9999999999998" y2="1290.3696273818"/>
    <line x1="56.9999999999998" y1="1290.3696273818" x2="22.9999999999999" y2="1290.3696273818"/>
    <line x1="22.9999999999999" y1="1290.3696273818" x2="22.9999999999999" y2="1287.3696273818"/>
    <line x1="40.7043709305915" y1="1299.37465118432" x2="40.2804235140337" y2="1299.45841409692"/>
    <line x1="40.2804235140337" y1="1299.45841409692" x2="39.8492423183368" y2="1299.42959719196"/>
    <line x1="39.8492423183368" y1="1299.42959719196" x2="39.4402116294269" y2="1299.29016429389"/>
    <line x1="39.4402116294269" y1="1299.29016429389" x2="39.0812062127981" y2="1299.04961752429"/>
    <line x1="39.0812062127981" y1="1299.04961752429" x2="38.7966916943091" y2="1298.72434974799"/>
    <line x1="38.7966916943091" y1="1298.72434974799" x2="38.6060572682124" y2="1298.3365274264"/>
    <line x1="38.6060572682124" y1="1298.3365274264" x2="38.5222943556083" y2="1297.91258000984"/>
    <line x1="38.5222943556083" y1="1297.91258000984" x2="38.551111260566" y2="1297.48139881415"/>
    <line x1="38.551111260566" y1="1297.48139881415" x2="38.6905441586348" y2="1297.07236812524"/>
    <line x1="38.6905441586348" y1="1297.07236812524" x2="38.9310909282349" y2="1296.71336270861"/>
    <line x1="38.9310909282349" y1="1296.71336270861" x2="39.2563587045407" y2="1296.42884819012"/>
    <line x1="39.2563587045407" y1="1296.42884819012" x2="39.6441810261271" y2="1296.23821376402"/>
    <line x1="39.6441810261271" y1="1296.23821376402" x2="40.0681284426849" y2="1296.15445085142"/>
    <line x1="40.0681284426849" y1="1296.15445085142" x2="40.4993096383818" y2="1296.18326775638"/>
    <line x1="40.4993096383818" y1="1296.18326775638" x2="40.9083403272917" y2="1296.32270065444"/>
    <line x1="40.9083403272917" y1="1296.32270065444" x2="41.2673457439205" y2="1296.56324742404"/>
    <line x1="41.2673457439205" y1="1296.56324742404" x2="41.5518602624096" y2="1296.88851520035"/>
    <line x1="41.5518602624096" y1="1296.88851520035" x2="41.7424946885062" y2="1297.27633752194"/>
    <line x1="41.7424946885062" y1="1297.27633752194" x2="41.8262576011103" y2="1297.70028493849"/>
    <line x1="41.8262576011103" y1="1297.70028493849" x2="41.7974406961527" y2="1298.13146613419"/>
    <line x1="41.7974406961527" y1="1298.13146613419" x2="41.6580077980839" y2="1298.5404968231"/>
    <line x1="41.6580077980839" y1="1298.5404968231" x2="41.4174610284837" y2="1298.89950223973"/>
    <line x1="41.4174610284837" y1="1298.89950223973" x2="41.0921932521779" y2="1299.18401675822"/>
    <line x1="41.0921932521779" y1="1299.18401675822" x2="40.7043709305915" y2="1299.37465118432"/>
    <line x1="61.9999999999996" y1="1304.4696273818" x2="61.9999999999996" y2="1307.4696273818"/>
    <line x1="61.9999999999996" y1="1307.4696273818" x2="51.9999999999997" y2="1307.4696273818"/>
    <line x1="51.9999999999997" y1="1307.4696273818" x2="51.9999999999997" y2="1304.4696273818"/>
    <line x1="51.9999999999997" y1="1304.4696273818" x2="61.9999999999996" y2="1304.4696273818"/>
    <line x1="28.0000000000001" y1="1307.43385221118" x2="18.0" y2="1307.43385221118"/>
    <line x1="18.0" y1="1307.43385221118" x2="18.0" y2="1304.4696273818"/>
    <line x1="18.0" y1="1304.4696273818" x2="28.0000000000001" y2="1304.4696273818"/>
    <line x1="28.0000000000001" y1="1304.4696273818" x2="28.0000000000001" y2="1307.43385221118"/>
  </g>
  <g id="face10" fill="none" stroke="rgb(0,0,255)" stroke-width="1" stroke-miterlimit="4" stroke-dasharray="none" stroke-linejoin="round" stroke-linecap="round">
    <line x1="18.0" y1="1327.41962288969" x2="13.0000000000001" y2="1327.41962288969"/>
    <line x1="13.0000000000001" y1="1327.41962288969" x2="13.0000000000001" y2="1337.41962288969"/>
    <line x1="13.0000000000001" y1="1337.41962288969" x2="10.0" y2="1337.41962288969"/>
    <line x1="10.0" y1="1337.41962288969" x2="10.0" y2="1371.41962288969"/>
    <line x1="10.0" y1="1371.41962288969" x2="13.0000000000001" y2="1371.41962288969"/>
    <line x1="13.0000000000001" y1="1371.41962288969" x2="13.0000000000001" y2="1381.41962288969"/>
    <line x1="13.0000000000001" y1="1381.41962288969" x2="18.0" y2="1381.41962288969"/>
    <line x1="18.0" y1="1381.41962288969" x2="18.0" y2="1384.41962288969"/>
    <line x1="18.0" y1="1384.41962288969" x2="28.0000000000001" y2="1384.41962288969"/>
    <line x1="28.0000000000001" y1="1384.41962288969" x2="28.0000000000001" y2="1381.41962288969"/>
    <line x1="28.0000000000001" y1="1381.41962288969" x2="49.0" y2="1381.41962288969"/>
    <line x1="49.0" y1="1381.41962288969" x2="49.0" y2="1379.41962288969"/>
    <line x1="49.0" y1="1379.41962288969" x2="47.7000000000001" y2="1379.41962288969"/>
    <line x1="47.7000000000001" y1="1379.41962288969" x2="47.7000000000001" y2="1377.21962288969"/>
    <line x1="47.7000000000001" y1="1377.21962288969" x2="49.0" y2="1377.21962288969"/>
    <line x1="49.0" y1="1377.21962288969" x2="49.0" y2="1374.21962288969"/>
    <line x1="49.0" y1="1374.21962288969" x2="52.0" y2="1374.21962288969"/>
    <line x1="52.0" y1="1374.21962288969" x2="52.0" y2="1377.21962288969"/>
    <line x1="52.0" y1="1377.21962288969" x2="53.3000000000001" y2="1377.21962288969"/>
    <line x1="53.3000000000001" y1="1377.21962288969" x2="53.3000000000001" y2="1379.41962288969"/>
    <line x1="53.3000000000001" y1="1379.41962288969" x2="52.0" y2="1379.41962288969"/>
    <line x1="52.0" y1="1379.41962288969" x2="52.0" y2="1381.41962288969"/>
    <line x1="52.0" y1="1381.41962288969" x2="73.0000000000001" y2="1381.41962288969"/>
    <line x1="73.0000000000001" y1="1381.41962288969" x2="73.0000000000001" y2="1384.41962288969"/>
    <line x1="73.0000000000001" y1="1384.41962288969" x2="83.0" y2="1384.41962288969"/>
    <line x1="83.0" y1="1384.41962288969" x2="83.0" y2="1381.41962288969"/>
    <line x1="83.0" y1="1381.41962288969" x2="88.0000000000001" y2="1381.41962288969"/>
    <line x1="88.0000000000001" y1="1381.41962288969" x2="88.0000000000001" y2="1371.41962288969"/>
    <line x1="88.0000000000001" y1="1371.41962288969" x2="91.0" y2="1371.41962288969"/>
    <line x1="91.0" y1="1371.41962288969" x2="91.0" y2="1337.41962288969"/>
    <line x1="91.0" y1="1337.41962288969" x2="88.0000000000001" y2="1337.41962288969"/>
    <line x1="88.0000000000001" y1="1337.41962288969" x2="88.0000000000001" y2="1327.41962288969"/>
    <line x1="88.0000000000001" y1="1327.41962288969" x2="83.0" y2="1327.41962288969"/>
    <line x1="83.0" y1="1327.41962288969" x2="83.0" y2="1324.41962288969"/>
    <line x1="83.0" y1="1324.41962288969" x2="73.0000000000001" y2="1324.41962288969"/>
    <line x1="73.0000000000001" y1="1324.41962288969" x2="73.0000000000001" y2="1327.41962288969"/>
    <line x1="73.0000000000001" y1="1327.41962288969" x2="52.0" y2="1327.41962288969"/>
    <line x1="52.0" y1="1327.41962288969" x2="52.0" y2="1329.41962288969"/>
    <line x1="52.0" y1="1329.41962288969" x2="53.3000000000001" y2="1329.41962288969"/>
    <line x1="53.3000000000001" y1="1329.41962288969" x2="53.3000000000001" y2="1331.61962288969"/>
    <line x1="53.3000000000001" y1="1331.61962288969" x2="52.0" y2="1331.61962288969"/>
    <line x1="52.0" y1="1331.61962288969" x2="52.0" y2="1334.61962288969"/>
    <line x1="52.0" y1="1334.61962288969" x2="49.0" y2="1334.61962288969"/>
    <line x1="49.0" y1="1334.61962288969" x2="49.0" y2="1331.61962288969"/>
    <line x1="49.0" y1="1331.61962288969" x2="47.7000000000001" y2="1331.61962288969"/>
    <line x1="47.7000000000001" y1="1331.61962288969" x2="47.7000000000001" y2="1329.41962288969"/>
    <line x1="47.7000000000001" y1="1329.41962288969" x2="49.0" y2="1329.41962288969"/>
    <line x1="49.0" y1="1329.41962288969" x2="49.0" y2="1327.41962288969"/>
    <line x1="49.0" y1="1327.41962288969" x2="28.0000000000001" y2="1327.41962288969"/>
    <line x1="28.0000000000001" y1="1327.41962288969" x2="28.0000000000001" y2="1324.41962288969"/>
    <line x1="28.0000000000001" y1="1324.41962288969" x2="18.0" y2="1324.41962288969"/>
    <line x1="18.0" y1="1324.41962288969" x2="18.0" y2="1327.41962288969"/>
    <line x1="34.4592874659126" y1="1369.01712903846" x2="34.3229907710689" y2="1370.05240521887"/>
    <line x1="34.3229907710689" y1="1370.05240521887" x2="33.9233890810503" y2="1371.01712903846"/>
    <line x1="33.9233890810503" y1="1371.01712903846" x2="33.2877145906588" y2="1371.84555616321"/>
    <line x1="33.2877145906588" y1="1371.84555616321" x2="32.4592874659126" y2="1372.4812306536"/>
    <line x1="32.4592874659126" y1="1372.4812306536" x2="31.4945636463227" y2="1372.88083234362"/>
    <line x1="31.4945636463227" y1="1372.88083234362" x2="30.4592874659126" y2="1373.01712903846"/>
    <line x1="30.4592874659126" y1="1373.01712903846" x2="29.4240112855025" y2="1372.88083234362"/>
    <line x1="29.4240112855025" y1="1372.88083234362" x2="28.4592874659126" y2="1372.4812306536"/>
    <line x1="28.4592874659126" y1="1372.4812306536" x2="27.6308603411664" y2="1371.84555616321"/>
    <line x1="27.6308603411664" y1="1371.84555616321" x2="26.9951858507749" y2="1371.01712903846"/>
    <line x1="26.9951858507749" y1="1371.01712903846" x2="26.5955841607564" y2="1370.05240521887"/>
    <line x1="26.5955841607564" y1="1370.05240521887" x2="26.4592874659126" y2="1369.01712903846"/>
    <line x1="26.4592874659126" y1="1369.01712903846" x2="26.5955841607563" y2="1367.98185285805"/>
    <line x1="26.5955841607563" y1="1367.98185285805" x2="26.9951858507749" y2="1367.01712903846"/>
    <line x1="26.9951858507749" y1="1367.01712903846" x2="27.6308603411664" y2="1366.18870191371"/>
    <line x1="27.6308603411664" y1="1366.18870191371" x2="28.4592874659126" y2="1365.55302742332"/>
    <line x1="28.4592874659126" y1="1365.55302742332" x2="29.4240112855025" y2="1365.1534257333"/>
    <line x1="29.4240112855025" y1="1365.1534257333" x2="30.4592874659126" y2="1365.01712903846"/>
    <line x1="30.4592874659126" y1="1365.01712903846" x2="31.4945636463227" y2="1365.1534257333"/>
    <line x1="31.4945636463227" y1="1365.1534257333" x2="32.4592874659126" y2="1365.55302742332"/>
    <line x1="32.4592874659126" y1="1365.55302742332" x2="33.2877145906588" y2="1366.18870191371"/>
    <line x1="33.2877145906588" y1="1366.18870191371" x2="33.9233890810503" y2="1367.01712903846"/>
    <line x1="33.9233890810503" y1="1367.01712903846" x2="34.3229907710689" y2="1367.98185285805"/>
    <line x1="34.3229907710689" y1="1367.98185285805" x2="34.4592874659126" y2="1369.01712903846"/>
  </g>
  <g id="face11" fill="none" stroke="rgb(0,0,255)" stroke-width="1" stroke-miterlimit="4" stroke-dasharray="none" stroke-linejoin="round" stroke-linecap="round">
    <line x1="13.0000000000001" y1="1412.41962288969" x2="13.0" y2="1422.91962288969"/>
    <line x1="13.0" y1="1422.91962288969" x2="15.0000000000001" y2="1422.91962288969"/>
    <line x1="15.0000000000001" y1="1422.91962288969" x2="15.0000000000001" y2="1421.61962288969"/>
    <line x1="15.0000000000001" y1="1421.61962288969" x2="17.2000000000001" y2="1421.61962288969"/>
    <line x1="17.2000000000001" y1="1421.61962288969" x2="17.2000000000001" y2="1422.91962288969"/>
    <line x1="17.2000000000001" y1="1422.91962288969" x2="20.2" y2="1422.91962288969"/>
    <line x1="20.2" y1="1422.91962288969" x2="20.2" y2="1425.91962288969"/>
    <line x1="20.2" y1="1425.91962288969" x2="17.2000000000001" y2="1425.91962288969"/>
    <line x1="17.2000000000001" y1="1425.91962288969" x2="17.2000000000001" y2="1427.21962288969"/>
    <line x1="17.2000000000001" y1="1427.21962288969" x2="15.0000000000001" y2="1427.21962288969"/>
    <line x1="15.0000000000001" y1="1427.21962288969" x2="15.0000000000001" y2="1425.91962288969"/>
    <line x1="15.0000000000001" y1="1425.91962288969" x2="13.0" y2="1425.91962288969"/>
    <line x1="13.0" y1="1425.91962288969" x2="13.0" y2="1436.41962288969"/>
    <line x1="13.0" y1="1436.41962288969" x2="10.0" y2="1436.41962288969"/>
    <line x1="10.0" y1="1436.41962288969" x2="10.0" y2="1446.41962288969"/>
    <line x1="10.0" y1="1446.41962288969" x2="13.0" y2="1446.41962288969"/>
    <line x1="13.0" y1="1446.41962288969" x2="13.0" y2="1451.41962288969"/>
    <line x1="13.0" y1="1451.41962288969" x2="18.0" y2="1451.41962288969"/>
    <line x1="18.0" y1="1451.41962288969" x2="18.0" y2="1454.41962288969"/>
    <line x1="18.0" y1="1454.41962288969" x2="28.0000000000001" y2="1454.41962288969"/>
    <line x1="28.0000000000001" y1="1454.41962288969" x2="28.0000000000001" y2="1451.41962288969"/>
    <line x1="28.0000000000001" y1="1451.41962288969" x2="73.0000000000001" y2="1451.41962288969"/>
    <line x1="73.0000000000001" y1="1451.41962288969" x2="73.0000000000001" y2="1454.41962288969"/>
    <line x1="73.0000000000001" y1="1454.41962288969" x2="83.0" y2="1454.41962288969"/>
    <line x1="83.0" y1="1454.41962288969" x2="83.0" y2="1451.41962288969"/>
    <line x1="83.0" y1="1451.41962288969" x2="88.0000000000001" y2="1451.41962288969"/>
    <line x1="88.0000000000001" y1="1451.41962288969" x2="88.0000000000001" y2="1446.41962288969"/>
    <line x1="88.0000000000001" y1="1446.41962288969" x2="91.0" y2="1446.41962288969"/>
    <line x1="91.0" y1="1446.41962288969" x2="91.0" y2="1436.41962288969"/>
    <line x1="91.0" y1="1436.41962288969" x2="88.0000000000001" y2="1436.41962288969"/>
    <line x1="88.0000000000001" y1="1436.41962288969" x2="88.0000000000001" y2="1425.91962288969"/>
    <line x1="88.0000000000001" y1="1425.91962288969" x2="86.0000000000001" y2="1425.91962288969"/>
    <line x1="86.0000000000001" y1="1425.91962288969" x2="86.0000000000001" y2="1427.21962288969"/>
    <line x1="86.0000000000001" y1="1427.21962288969" x2="83.8" y2="1427.21962288969"/>
    <line x1="83.8" y1="1427.21962288969" x2="83.8" y2="1425.91962288969"/>
    <line x1="83.8" y1="1425.91962288969" x2="80.8" y2="1425.91962288969"/>
    <line x1="80.8" y1="1425.91962288969" x2="80.8" y2="1422.91962288969"/>
    <line x1="80.8" y1="1422.91962288969" x2="83.8" y2="1422.91962288969"/>
    <line x1="83.8" y1="1422.91962288969" x2="83.8" y2="1421.61962288969"/>
    <line x1="83.8" y1="1421.61962288969" x2="86.0" y2="1421.61962288969"/>
    <line x1="86.0" y1="1421.61962288969" x2="86.0000000000001" y2="1422.91962288969"/>
    <line x1="86.0000000000001" y1="1422.91962288969" x2="88.0000000000001" y2="1422.91962288969"/>
    <line x1="88.0000000000001" y1="1422.91962288969" x2="88.0000000000001" y2="1412.41962288969"/>
    <line x1="88.0000000000001" y1="1412.41962288969" x2="91.0" y2="1412.41962288969"/>
    <line x1="91.0" y1="1412.41962288969" x2="91.0" y2="1402.41962288969"/>
    <line x1="91.0" y1="1402.41962288969" x2="88.0000000000001" y2="1402.41962288969"/>
    <line x1="88.0000000000001" y1="1402.41962288969" x2="88.0000000000001" y2="1397.41962288969"/>
    <line x1="88.0000000000001" y1="1397.41962288969" x2="83.0" y2="1397.41962288969"/>
    <line x1="83.0" y1="1397.41962288969" x2="83.0" y2="1394.41962288969"/>
    <line x1="83.0" y1="1394.41962288969" x2="73.0000000000001" y2="1394.41962288969"/>
    <line x1="73.0000000000001" y1="1394.41962288969" x2="73.0000000000001" y2="1397.41962288969"/>
    <line x1="73.0000000000001" y1="1397.41962288969" x2="28.0000000000001" y2="1397.41962288969"/>
    <line x1="28.0000000000001" y1="1397.41962288969" x2="28.0000000000001" y2="1394.41962288969"/>
    <line x1="28.0000000000001" y1="1394.41962288969" x2="18.0" y2="1394.41962288969"/>
    <line x1="18.0" y1="1394.41962288969" x2="18.0" y2="1397.41962288969"/>
    <line x1="18.0" y1="1397.41962288969" x2="13.0" y2="1397.41962288969"/>
    <line x1="13.0" y1="1397.41962288969" x2="13.0" y2="1402.41962288969"/>
    <line x1="13.0" y1="1402.41962288969" x2="10.0000000000001" y2="1402.41962288969"/>
    <line x1="10.0000000000001" y1="1402.41962288969" x2="10.0000000000002" y2="1412.41962288969"/>
    <line x1="10.0000000000002" y1="1412.41962288969" x2="13.0000000000001" y2="1412.41962288969"/>
    <line x1="49.8529523872438" y1="1422.00480832396" x2="50.5" y2="1421.91962288969"/>
    <line x1="50.5" y1="1421.91962288969" x2="51.1470476127563" y2="1422.00480832396"/>
    <line x1="51.1470476127563" y1="1422.00480832396" x2="51.7500000000001" y2="1422.25455938022"/>
    <line x1="51.7500000000001" y1="1422.25455938022" x2="52.2677669529664" y2="1422.65185593672"/>
    <line x1="52.2677669529664" y1="1422.65185593672" x2="52.6650635094611" y2="1423.16962288969"/>
    <line x1="52.6650635094611" y1="1423.16962288969" x2="52.9148145657226" y2="1423.77257527693"/>
    <line x1="52.9148145657226" y1="1423.77257527693" x2="53.0" y2="1424.41962288969"/>
    <line x1="53.0" y1="1424.41962288969" x2="52.9148145657226" y2="1425.06667050244"/>
    <line x1="52.9148145657226" y1="1425.06667050244" x2="52.6650635094611" y2="1425.66962288969"/>
    <line x1="52.6650635094611" y1="1425.66962288969" x2="52.2677669529664" y2="1426.18738984265"/>
    <line x1="52.2677669529664" y1="1426.18738984265" x2="51.7500000000001" y2="1426.58468639915"/>
    <line x1="51.7500000000001" y1="1426.58468639915" x2="51.1470476127563" y2="1426.83443745541"/>
    <line x1="51.1470476127563" y1="1426.83443745541" x2="50.5" y2="1426.91962288969"/>
    <line x1="50.5" y1="1426.91962288969" x2="49.8529523872438" y2="1426.83443745541"/>
    <line x1="49.8529523872438" y1="1426.83443745541" x2="49.25" y2="1426.58468639915"/>
    <line x1="49.25" y1="1426.58468639915" x2="48.7322330470337" y2="1426.18738984265"/>
    <line x1="48.7322330470337" y1="1426.18738984265" x2="48.3349364905389" y2="1425.66962288969"/>
    <line x1="48.3349364905389" y1="1425.66962288969" x2="48.0851854342774" y2="1425.06667050244"/>
    <line x1="48.0851854342774" y1="1425.06667050244" x2="48.0" y2="1424.41962288969"/>
    <line x1="48.0" y1="1424.41962288969" x2="48.0851854342774" y2="1423.77257527693"/>
    <line x1="48.0851854342774" y1="1423.77257527693" x2="48.3349364905389" y2="1423.16962288969"/>
    <line x1="48.3349364905389" y1="1423.16962288969" x2="48.7322330470337" y2="1422.65185593672"/>
    <line x1="48.7322330470337" y1="1422.65185593672" x2="49.25" y2="1422.25455938022"/>
    <line x1="49.25" y1="1422.25455938022" x2="49.8529523872438" y2="1422.00480832396"/>
    <line x1="78.0000000000001" y1="1406.41962288969" x2="68.0" y2="1406.41962288969"/>
    <line x1="68.0" y1="1406.41962288969" x2="68.0" y2="1403.41962288969"/>
    <line x1="68.0" y1="1403.41962288969" x2="78.0000000000001" y2="1403.41962288969"/>
    <line x1="78.0000000000001" y1="1403.41962288969" x2="78.0000000000001" y2="1406.41962288969"/>
    <line x1="33.0000000000002" y1="1403.41962288969" x2="23.0000000000001" y2="1403.41962288969"/>
    <line x1="23.0000000000001" y1="1403.41962288969" x2="23.0000000000001" y2="1400.41962288969"/>
    <line x1="23.0000000000001" y1="1400.41962288969" x2="33.0000000000002" y2="1400.41962288969"/>
    <line x1="33.0000000000002" y1="1400.41962288969" x2="33.0000000000002" y2="1403.41962288969"/>
  </g>
  <g id="face12" fill="none" stroke="rgb(0,0,255)" stroke-width="1" stroke-miterlimit="4" stroke-dasharray="none" stroke-linejoin="round" stroke-linecap="round">
    <line x1="10.0" y1="1492.57921064518" x2="10.0" y2="1494.41962288969"/>
    <line x1="10.0" y1="1494.41962288969" x2="20.0" y2="1494.41962288969"/>
    <line x1="20.0" y1="1494.41962288969" x2="20.0" y2="1464.41962288969"/>
    <line x1="20.0" y1="1464.41962288969" x2="10.0" y2="1464.41962288969"/>
    <line x1="10.0" y1="1464.41962288969" x2="10.0" y2="1487.73879840067"/>
    <line x1="10.0" y1="1487.73879840067" x2="15.0" y2="1487.73879840067"/>
    <line x1="15.0" y1="1487.73879840067" x2="15.3882285676537" y2="1487.78990966124"/>
    <line x1="15.3882285676537" y1="1487.78990966124" x2="15.75" y2="1487.93976029499"/>
    <line x1="15.75" y1="1487.93976029499" x2="16.0606601717798" y2="1488.17813822889"/>
    <line x1="16.0606601717798" y1="1488.17813822889" x2="16.2990381056766" y2="1488.48879840067"/>
    <line x1="16.2990381056766" y1="1488.48879840067" x2="16.4488887394335" y2="1488.85056983302"/>
    <line x1="16.4488887394335" y1="1488.85056983302" x2="16.5" y2="1489.23879840067"/>
    <line x1="16.5" y1="1489.23879840067" x2="16.4488887394335" y2="1489.62702696832"/>
    <line x1="16.4488887394335" y1="1489.62702696832" x2="16.2990381056766" y2="1489.98879840067"/>
    <line x1="16.2990381056766" y1="1489.98879840067" x2="16.0606601717798" y2="1490.29945857245"/>
    <line x1="16.0606601717798" y1="1490.29945857245" x2="15.75" y2="1490.53783650635"/>
    <line x1="15.75" y1="1490.53783650635" x2="15.3882285676537" y2="1490.6876871401"/>
    <line x1="15.3882285676537" y1="1490.6876871401" x2="15.0" y2="1490.73879840067"/>
    <line x1="15.0" y1="1490.73879840067" x2="10.0" y2="1492.57921064518"/>
    <line x1="16.2990381056766" y1="1468.48879840067" x2="16.4488887394336" y2="1468.85056983302"/>
    <line x1="16.4488887394336" y1="1468.85056983302" x2="16.5" y2="1469.23879840067"/>
    <line x1="16.5" y1="1469.23879840067" x2="16.4488887394335" y2="1469.62702696832"/>
    <line x1="16.4488887394335" y1="1469.62702696832" x2="16.2990381056766" y2="1469.98879840067"/>
    <line x1="16.2990381056766" y1="1469.98879840067" x2="16.0606601717798" y2="1470.29945857245"/>
    <line x1="16.0606601717798" y1="1470.29945857245" x2="15.75" y2="1470.53783650635"/>
    <line x1="15.75" y1="1470.53783650635" x2="15.3882285676537" y2="1470.6876871401"/>
    <line x1="15.3882285676537" y1="1470.6876871401" x2="15.0" y2="1470.73879840067"/>
    <line x1="15.0" y1="1470.73879840067" x2="14.6117714323461" y2="1470.6876871401"/>
    <line x1="14.6117714323461" y1="1470.6876871401" x2="14.2499999999999" y2="1470.53783650635"/>
    <line x1="14.2499999999999" y1="1470.53783650635" x2="13.9393398282201" y2="1470.29945857245"/>
    <line x1="13.9393398282201" y1="1470.29945857245" x2="13.7009618943233" y2="1469.98879840067"/>
    <line x1="13.7009618943233" y1="1469.98879840067" x2="13.5511112605664" y2="1469.62702696832"/>
    <line x1="13.5511112605664" y1="1469.62702696832" x2="13.5" y2="1469.23879840067"/>
    <line x1="13.5" y1="1469.23879840067" x2="13.5511112605663" y2="1468.85056983302"/>
    <line x1="13.5511112605663" y1="1468.85056983302" x2="13.7009618943233" y2="1468.48879840067"/>
    <line x1="13.7009618943233" y1="1468.48879840067" x2="13.9393398282201" y2="1468.17813822889"/>
    <line x1="13.9393398282201" y1="1468.17813822889" x2="14.2499999999999" y2="1467.93976029499"/>
    <line x1="14.2499999999999" y1="1467.93976029499" x2="14.6117714323461" y2="1467.78990966124"/>
    <line x1="14.6117714323461" y1="1467.78990966124" x2="15.0" y2="1467.73879840067"/>
    <line x1="15.0" y1="1467.73879840067" x2="15.3882285676537" y2="1467.78990966124"/>
    <line x1="15.3882285676537" y1="1467.78990966124" x2="15.75" y2="1467.93976029499"/>
    <line x1="15.75" y1="1467.93976029499" x2="16.0606601717798" y2="1468.17813822889"/>
    <line x1="16.0606601717798" y1="1468.17813822889" x2="16.2990381056766" y2="1468.48879840067"/>
  </g>
  <g id="face13" fill="none" stroke="rgb(0,0,255)" stroke-width="1" stroke-miterlimit="4" stroke-dasharray="none" stroke-linejoin="round" stroke-linecap="round">
    <line x1="10.0" y1="1504.41962288969" x2="10.0" y2="1534.46961839757"/>
    <line x1="10.0" y1="1534.46961839757" x2="15.9999999999999" y2="1534.46961839757"/>
    <line x1="15.9999999999999" y1="1534.46961839757" x2="90.9999999999927" y2="1534.46961839757"/>
    <line x1="90.9999999999927" y1="1534.46961839757" x2="97.0000000000001" y2="1534.46961839757"/>
    <line x1="97.0000000000001" y1="1534.46961839757" x2="97.0000000000001" y2="1504.41962288969"/>
    <line x1="97.0000000000001" y1="1504.41962288969" x2="10.0" y2="1504.41962288969"/>
    <line x1="31.0" y1="1507.41962288969" x2="31.0" y2="1510.41962288969"/>
    <line x1="31.0" y1="1510.41962288969" x2="21.0" y2="1510.41962288969"/>
    <line x1="21.0" y1="1510.41962288969" x2="21.0" y2="1507.41962288969"/>
    <line x1="21.0" y1="1507.41962288969" x2="31.0" y2="1507.41962288969"/>
    <line x1="86.0000000000001" y1="1510.41962288969" x2="76.0" y2="1510.41962288969"/>
    <line x1="76.0" y1="1510.41962288969" x2="76.0" y2="1507.41962288969"/>
    <line x1="76.0" y1="1507.41962288969" x2="86.0000000000001" y2="1507.41962288969"/>
    <line x1="86.0000000000001" y1="1507.41962288969" x2="86.0000000000001" y2="1510.41962288969"/>
    <line x1="52.0511112605664" y1="1509.30785145734" x2="52.0" y2="1508.91962288969"/>
    <line x1="52.0" y1="1508.91962288969" x2="52.0511112605664" y2="1508.53139432203"/>
    <line x1="52.0511112605664" y1="1508.53139432203" x2="52.2009618943234" y2="1508.16962288969"/>
    <line x1="52.2009618943234" y1="1508.16962288969" x2="52.4393398282202" y2="1507.85896271791"/>
    <line x1="52.4393398282202" y1="1507.85896271791" x2="52.75" y2="1507.62058478401"/>
    <line x1="52.75" y1="1507.62058478401" x2="53.1117714323462" y2="1507.47073415025"/>
    <line x1="53.1117714323462" y1="1507.47073415025" x2="53.5" y2="1507.41962288969"/>
    <line x1="53.5" y1="1507.41962288969" x2="53.8882285676537" y2="1507.47073415025"/>
    <line x1="53.8882285676537" y1="1507.47073415025" x2="54.25" y2="1507.62058478401"/>
    <line x1="54.25" y1="1507.62058478401" x2="54.5606601717798" y2="1507.85896271791"/>
    <line x1="54.5606601717798" y1="1507.85896271791" x2="54.7990381056766" y2="1508.16962288969"/>
    <line x1="54.7990381056766" y1="1508.16962288969" x2="54.9488887394335" y2="1508.53139432203"/>
    <line x1="54.9488887394335" y1="1508.53139432203" x2="55.0000000000001" y2="1508.91962288969"/>
    <line x1="55.0000000000001" y1="1508.91962288969" x2="54.9488887394335" y2="1509.30785145734"/>
    <line x1="54.9488887394335" y1="1509.30785145734" x2="54.7990381056766" y2="1509.66962288969"/>
    <line x1="54.7990381056766" y1="1509.66962288969" x2="54.5606601717798" y2="1509.98028306147"/>
    <line x1="54.5606601717798" y1="1509.98028306147" x2="54.25" y2="1510.21866099536"/>
    <line x1="54.25" y1="1510.21866099536" x2="53.8882285676537" y2="1510.36851162912"/>
    <line x1="53.8882285676537" y1="1510.36851162912" x2="53.5" y2="1510.41962288969"/>
    <line x1="53.5" y1="1510.41962288969" x2="53.1117714323462" y2="1510.36851162912"/>
    <line x1="53.1117714323462" y1="1510.36851162912" x2="52.75" y2="1510.21866099536"/>
    <line x1="52.75" y1="1510.21866099536" x2="52.4393398282202" y2="1509.98028306147"/>
    <line x1="52.4393398282202" y1="1509.98028306147" x2="52.2009618943234" y2="1509.66962288969"/>
    <line x1="52.2009618943234" y1="1509.66962288969" x2="52.0511112605664" y2="1509.30785145734"/>
    <line x1="91.0" y1="1514.44462064363" x2="94.0000000000001" y2="1514.44462064363"/>
    <line x1="94.0000000000001" y1="1514.44462064363" x2="94.0" y2="1524.44462064363"/>
    <line x1="94.0" y1="1524.44462064363" x2="91.0" y2="1524.44462064363"/>
    <line x1="91.0" y1="1524.44462064363" x2="91.0" y2="1514.44462064363"/>
    <line x1="13.0" y1="1514.44462064363" x2="16.0000000000001" y2="1514.44462064363"/>
    <line x1="16.0000000000001" y1="1514.44462064363" x2="16.0000000000001" y2="1524.44462064363"/>
    <line x1="16.0000000000001" y1="1524.44462064363" x2="13.0" y2="1524.44462064363"/>
    <line x1="13.0" y1="1524.44462064363" x2="13.0" y2="1514.44462064363"/>
    <line x1="86.000000000001" y1="1527.48384771907" x2="76.0000000000011" y2="1527.48384771907"/>
    <line x1="76.0000000000011" y1="1527.48384771907" x2="76.0000000000011" y2="1524.48384771907"/>
    <line x1="76.0000000000011" y1="1524.48384771907" x2="86.000000000001" y2="1524.48384771907"/>
    <line x1="86.000000000001" y1="1524.48384771907" x2="86.000000000001" y2="1527.48384771907"/>
    <line x1="31.0000000000011" y1="1524.48384771907" x2="31.0000000000011" y2="1527.48384771907"/>
    <line x1="31.0000000000011" y1="1527.48384771907" x2="21.000000000001" y2="1527.48384771907"/>
    <line x1="21.000000000001" y1="1527.48384771907" x2="21.000000000001" y2="1524.48384771907"/>
    <line x1="21.000000000001" y1="1524.48384771907" x2="31.0000000000011" y2="1524.48384771907"/>
  </g>
  <g id="face14" fill="none" stroke="rgb(0,0,255)" stroke-width="1" stroke-miterlimit="4" stroke-dasharray="none" stroke-linejoin="round" stroke-linecap="round">
    <line x1="10.0" y1="1544.46961839757" x2="10.0" y2="1585.66184497746"/>
    <line x1="10.0" y1="1585.66184497746" x2="97.0000000000001" y2="1585.66184497746"/>
    <line x1="97.0000000000001" y1="1585.66184497746" x2="97.0000000000001" y2="1544.46961839757"/>
    <line x1="97.0000000000001" y1="1544.46961839757" x2="90.9999999999927" y2="1544.46961839757"/>
    <line x1="90.9999999999927" y1="1544.46961839757" x2="16.0" y2="1544.46961839757"/>
    <line x1="16.0" y1="1544.46961839757" x2="10.0" y2="1544.46961839757"/>
    <line x1="48.5000000000001" y1="1583.41962288969" x2="48.5000000000001" y2="1580.41962288969"/>
    <line x1="48.5000000000001" y1="1580.41962288969" x2="58.5000000000001" y2="1580.41962288969"/>
    <line x1="58.5000000000001" y1="1580.41962288969" x2="58.5000000000001" y2="1583.41962288969"/>
    <line x1="58.5000000000001" y1="1583.41962288969" x2="48.5000000000001" y2="1583.41962288969"/>
    <line x1="76.0" y1="1546.41962288969" x2="86.0" y2="1546.41962288969"/>
    <line x1="86.0" y1="1546.41962288969" x2="86.0" y2="1549.41962288969"/>
    <line x1="86.0" y1="1549.41962288969" x2="76.0" y2="1549.41962288969"/>
    <line x1="76.0" y1="1549.41962288969" x2="76.0" y2="1546.41962288969"/>
    <line x1="31.0" y1="1549.41962288969" x2="21.0" y2="1549.41962288969"/>
    <line x1="21.0" y1="1549.41962288969" x2="21.0" y2="1546.41962288969"/>
    <line x1="21.0" y1="1546.41962288969" x2="31.0" y2="1546.41962288969"/>
    <line x1="31.0" y1="1546.41962288969" x2="31.0" y2="1549.41962288969"/>
  </g>
  <g id="face15" fill="none" stroke="rgb(0,0,255)" stroke-width="1" stroke-miterlimit="4" stroke-dasharray="none" stroke-linejoin="round" stroke-linecap="round">
    <line x1="68.0000000000001" y1="1598.66184497746" x2="13.0000000000001" y2="1598.66184497746"/>
    <line x1="13.0000000000001" y1="1598.66184497746" x2="13.0" y2="1611.66184497746"/>
    <line x1="13.0" y1="1611.66184497746" x2="10.0" y2="1611.66184497746"/>
    <line x1="10.0" y1="1611.66184497746" x2="10.0000000000001" y2="1621.66184497746"/>
    <line x1="10.0000000000001" y1="1621.66184497746" x2="13.0000000000001" y2="1621.66184497746"/>
    <line x1="13.0000000000001" y1="1621.66184497746" x2="13.0000000000001" y2="1626.66184497746"/>
    <line x1="13.0000000000001" y1="1626.66184497746" x2="88.0" y2="1626.66184497746"/>
    <line x1="88.0" y1="1626.66184497746" x2="88.0" y2="1621.66184497746"/>
    <line x1="88.0" y1="1621.66184497746" x2="91.0000000000001" y2="1621.66184497746"/>
    <line x1="91.0000000000001" y1="1621.66184497746" x2="91.0000000000001" y2="1611.66184497746"/>
    <line x1="91.0000000000001" y1="1611.66184497746" x2="88.0" y2="1611.66184497746"/>
    <line x1="88.0" y1="1611.66184497746" x2="88.0" y2="1598.66184497746"/>
    <line x1="88.0" y1="1598.66184497746" x2="77.9999999999999" y2="1598.66184497746"/>
    <line x1="77.9999999999999" y1="1598.66184497746" x2="77.9999999999999" y2="1595.66184497746"/>
    <line x1="77.9999999999999" y1="1595.66184497746" x2="68.0000000000001" y2="1595.66184497746"/>
    <line x1="68.0000000000001" y1="1595.66184497746" x2="68.0000000000001" y2="1598.66184497746"/>
    <line x1="44.3999999383656" y1="1608.66184497746" x2="56.5999999383657" y2="1608.66184497746"/>
    <line x1="56.5999999383657" y1="1608.66184497746" x2="56.5999999504508" y2="1620.86184485419"/>
    <line x1="56.5999999504508" y1="1620.86184485419" x2="44.3999999504507" y2="1620.86184497746"/>
    <line x1="44.3999999504507" y1="1620.86184497746" x2="44.3999999383656" y2="1608.66184497746"/>
  </g>
  <g id="face16" fill="none" stroke="rgb(0,0,255)" stroke-width="1" stroke-miterlimit="4" stroke-dasharray="none" stroke-linejoin="round" stroke-linecap="round">
    <line x1="10.0" y1="1639.66184497746" x2="10.0" y2="1693.66184497746"/>
    <line x1="10.0" y1="1693.66184497746" x2="42.4999999999999" y2="1693.66184497746"/>
    <line x1="42.4999999999999" y1="1693.66184497746" x2="42.4999999999999" y2="1696.66184497746"/>
    <line x1="42.4999999999999" y1="1696.66184497746" x2="52.4999999999999" y2="1696.66184497746"/>
    <line x1="52.4999999999999" y1="1696.66184497746" x2="52.4999999999999" y2="1693.66184497746"/>
    <line x1="52.4999999999999" y1="1693.66184497746" x2="84.9999999999999" y2="1693.66184497746"/>
    <line x1="84.9999999999999" y1="1693.66184497746" x2="84.9999999999999" y2="1639.66184497746"/>
    <line x1="84.9999999999999" y1="1639.66184497746" x2="52.5" y2="1639.66184497746"/>
    <line x1="52.5" y1="1639.66184497746" x2="52.5" y2="1636.66184497746"/>
    <line x1="52.5" y1="1636.66184497746" x2="42.5" y2="1636.66184497746"/>
    <line x1="42.5" y1="1636.66184497746" x2="42.5" y2="1639.66184497746"/>
    <line x1="42.5" y1="1639.66184497746" x2="10.0" y2="1639.66184497746"/>
    <line x1="47.9999999999999" y1="1683.66184497746" x2="47.0" y2="1683.66184497746"/>
    <line x1="47.0" y1="1683.66184497746" x2="47.0" y2="1649.76184497746"/>
    <line x1="47.0" y1="1649.76184497746" x2="47.5" y2="1649.76184497746"/>
    <line x1="47.5" y1="1649.76184497746" x2="47.9999999999999" y2="1649.76184497746"/>
    <line x1="47.9999999999999" y1="1649.76184497746" x2="47.9999999999999" y2="1683.66184497746"/>
  </g>
  <g id="face17" fill="none" stroke="rgb(0,0,255)" stroke-width="1" stroke-miterlimit="4" stroke-dasharray="none" stroke-linejoin="round" stroke-linecap="round">
    <line x1="20.0" y1="1736.66184497746" x2="20.0" y2="1734.82143273296"/>
    <line x1="20.0" y1="1734.82143273296" x2="15.0" y2="1732.98102048845"/>
    <line x1="15.0" y1="1732.98102048845" x2="14.6117714323462" y2="1732.92990922788"/>
    <line x1="14.6117714323462" y1="1732.92990922788" x2="14.25" y2="1732.78005859412"/>
    <line x1="14.25" y1="1732.78005859412" x2="13.9393398282201" y2="1732.54168066023"/>
    <line x1="13.9393398282201" y1="1732.54168066023" x2="13.7009618943234" y2="1732.23102048845"/>
    <line x1="13.7009618943234" y1="1732.23102048845" x2="13.5511112605664" y2="1731.8692490561"/>
    <line x1="13.5511112605664" y1="1731.8692490561" x2="13.5" y2="1731.48102048845"/>
    <line x1="13.5" y1="1731.48102048845" x2="13.5511112605664" y2="1731.09279192079"/>
    <line x1="13.5511112605664" y1="1731.09279192079" x2="13.7009618943234" y2="1730.73102048845"/>
    <line x1="13.7009618943234" y1="1730.73102048845" x2="13.9393398282201" y2="1730.42036031667"/>
    <line x1="13.9393398282201" y1="1730.42036031667" x2="14.25" y2="1730.18198238277"/>
    <line x1="14.25" y1="1730.18198238277" x2="14.6117714323462" y2="1730.03213174901"/>
    <line x1="14.6117714323462" y1="1730.03213174901" x2="15.0" y2="1729.98102048845"/>
    <line x1="15.0" y1="1729.98102048845" x2="20.0" y2="1729.98102048845"/>
    <line x1="20.0" y1="1729.98102048845" x2="20.0" y2="1706.66184497746"/>
    <line x1="20.0" y1="1706.66184497746" x2="10.0" y2="1706.66184497746"/>
    <line x1="10.0" y1="1706.66184497746" x2="10.0" y2="1736.66184497746"/>
    <line x1="10.0" y1="1736.66184497746" x2="20.0" y2="1736.66184497746"/>
    <line x1="13.5511112605664" y1="1711.09279192079" x2="13.7009618943234" y2="1710.73102048845"/>
    <line x1="13.7009618943234" y1="1710.73102048845" x2="13.9393398282202" y2="1710.42036031667"/>
    <line x1="13.9393398282202" y1="1710.42036031667" x2="14.25" y2="1710.18198238277"/>
    <line x1="14.25" y1="1710.18198238277" x2="14.6117714323462" y2="1710.03213174901"/>
    <line x1="14.6117714323462" y1="1710.03213174901" x2="15.0" y2="1709.98102048845"/>
    <line x1="15.0" y1="1709.98102048845" x2="15.3882285676538" y2="1710.03213174901"/>
    <line x1="15.3882285676538" y1="1710.03213174901" x2="15.75" y2="1710.18198238277"/>
    <line x1="15.75" y1="1710.18198238277" x2="16.0606601717798" y2="1710.42036031667"/>
    <line x1="16.0606601717798" y1="1710.42036031667" x2="16.2990381056767" y2="1710.73102048845"/>
    <line x1="16.2990381056767" y1="1710.73102048845" x2="16.4488887394336" y2="1711.09279192079"/>
    <line x1="16.4488887394336" y1="1711.09279192079" x2="16.5" y2="1711.48102048845"/>
    <line x1="16.5" y1="1711.48102048845" x2="16.4488887394336" y2="1711.8692490561"/>
    <line x1="16.4488887394336" y1="1711.8692490561" x2="16.2990381056767" y2="1712.23102048845"/>
    <line x1="16.2990381056767" y1="1712.23102048845" x2="16.0606601717798" y2="1712.54168066023"/>
    <line x1="16.0606601717798" y1="1712.54168066023" x2="15.75" y2="1712.78005859412"/>
    <line x1="15.75" y1="1712.78005859412" x2="15.3882285676538" y2="1712.92990922788"/>
    <line x1="15.3882285676538" y1="1712.92990922788" x2="15.0" y2="1712.98102048845"/>
    <line x1="15.0" y1="1712.98102048845" x2="14.6117714323462" y2="1712.92990922788"/>
    <line x1="14.6117714323462" y1="1712.92990922788" x2="14.25" y2="1712.78005859412"/>
    <line x1="14.25" y1="1712.78005859412" x2="13.9393398282202" y2="1712.54168066023"/>
    <line x1="13.9393398282202" y1="1712.54168066023" x2="13.7009618943234" y2="1712.23102048845"/>
    <line x1="13.7009618943234" y1="1712.23102048845" x2="13.5511112605664" y2="1711.8692490561"/>
    <line x1="13.5511112605664" y1="1711.8692490561" x2="13.5" y2="1711.48102048845"/>
    <line x1="13.5" y1="1711.48102048845" x2="13.5511112605664" y2="1711.09279192079"/>
  </g>
  <g id="face18" fill="none" stroke="rgb(0,0,255)" stroke-width="1" stroke-miterlimit="4" stroke-dasharray="none" stroke-linejoin="round" stroke-linecap="round">
    <line x1="20.0" y1="1770.16184497746" x2="10.0" y2="1770.16184497746"/>
    <line x1="10.0" y1="1770.16184497746" x2="10.0" y2="1806.66184497746"/>
    <line x1="10.0" y1="1806.66184497746" x2="15.0" y2="1806.66184497746"/>
    <line x1="15.0" y1="1806.66184497746" x2="15.0" y2="1803.66184497746"/>
    <line x1="15.0" y1="1803.66184497746" x2="47.5" y2="1803.66184497746"/>
    <line x1="47.5" y1="1803.66184497746" x2="47.5" y2="1781.66184497746"/>
    <line x1="47.5" y1="1781.66184497746" x2="50.4999999999999" y2="1781.66184497746"/>
    <line x1="50.4999999999999" y1="1781.66184497746" x2="50.4999999999999" y2="1771.66184497746"/>
    <line x1="50.4999999999999" y1="1771.66184497746" x2="47.5" y2="1771.66184497746"/>
    <line x1="47.5" y1="1771.66184497746" x2="47.5" y2="1749.66184497746"/>
    <line x1="47.5" y1="1749.66184497746" x2="15.0" y2="1749.66184497746"/>
    <line x1="15.0" y1="1749.66184497746" x2="15.0" y2="1746.66184497746"/>
    <line x1="15.0" y1="1746.66184497746" x2="10.0" y2="1746.66184497746"/>
    <line x1="10.0" y1="1746.66184497746" x2="10.0" y2="1762.16184497746"/>
    <line x1="10.0" y1="1762.16184497746" x2="20.0" y2="1762.16184497746"/>
    <line x1="20.0" y1="1762.16184497746" x2="20.0" y2="1770.16184497746"/>
  </g>
  <g id="face19" fill="none" stroke="rgb(0,0,255)" stroke-width="1" stroke-miterlimit="4" stroke-dasharray="none" stroke-linejoin="round" stroke-linecap="round">
    <line x1="23.0000000000001" y1="1819.66184497746" x2="13.0" y2="1819.66184497746"/>
    <line x1="13.0" y1="1819.66184497746" x2="13.0" y2="1824.66184497746"/>
    <line x1="13.0" y1="1824.66184497746" x2="10.0000000000001" y2="1824.66184497746"/>
    <line x1="10.0000000000001" y1="1824.66184497746" x2="10.0" y2="1834.66184497746"/>
    <line x1="10.0" y1="1834.66184497746" x2="13.0" y2="1834.66184497746"/>
    <line x1="13.0" y1="1834.66184497746" x2="13.0" y2="1847.66184497746"/>
    <line x1="13.0" y1="1847.66184497746" x2="87.9999999999999" y2="1847.66184497746"/>
    <line x1="87.9999999999999" y1="1847.66184497746" x2="87.9999999999999" y2="1834.66184497746"/>
    <line x1="87.9999999999999" y1="1834.66184497746" x2="91.0" y2="1834.66184497746"/>
    <line x1="91.0" y1="1834.66184497746" x2="91.0" y2="1824.66184497746"/>
    <line x1="91.0" y1="1824.66184497746" x2="87.9999999999999" y2="1824.66184497746"/>
    <line x1="87.9999999999999" y1="1824.66184497746" x2="87.9999999999999" y2="1819.66184497746"/>
    <line x1="87.9999999999999" y1="1819.66184497746" x2="33.0000000000001" y2="1819.66184497746"/>
    <line x1="33.0000000000001" y1="1819.66184497746" x2="33.0000000000001" y2="1816.66184497746"/>
    <line x1="33.0000000000001" y1="1816.66184497746" x2="23.0000000000001" y2="1816.66184497746"/>
    <line x1="23.0000000000001" y1="1816.66184497746" x2="23.0000000000001" y2="1819.66184497746"/>
  </g>
  <g id="face20" fill="none" stroke="rgb(0,0,255)" stroke-width="1" stroke-miterlimit="4" stroke-dasharray="none" stroke-linejoin="round" stroke-linecap="round">
    <line x1="97.0000000000001" y1="2122.25949718625" x2="97.0000000000001" y2="1857.66184497746"/>
    <line x1="97.0000000000001" y1="1857.66184497746" x2="10.0000000000001" y2="1857.66184497746"/>
    <line x1="10.0000000000001" y1="1857.66184497746" x2="10.0" y2="2122.25949718625"/>
    <line x1="10.0" y1="2122.25949718625" x2="97.0000000000001" y2="2122.25949718625"/>
    <line x1="58.5000000000001" y1="2116.25949718625" x2="58.5000000000001" y2="2119.25949718625"/>
    <line x1="58.5000000000001" y1="2119.25949718625" x2="48.5000000000001" y2="2119.25949718625"/>
    <line x1="48.5000000000001" y1="2119.25949718625" x2="48.5000000000001" y2="2116.25949718625"/>
    <line x1="48.5000000000001" y1="2116.25949718625" x2="58.5000000000001" y2="2116.25949718625"/>
    <line x1="16.0000000000001" y1="1869.41962288969" x2="13.0000000000001" y2="1869.41962288969"/>
    <line x1="13.0000000000001" y1="1869.41962288969" x2="13.0000000000001" y2="1859.41962288969"/>
    <line x1="13.0000000000001" y1="1859.41962288969" x2="16.0000000000001" y2="1859.41962288969"/>
    <line x1="16.0000000000001" y1="1859.41962288969" x2="16.0000000000001" y2="1869.41962288969"/>
    <line x1="94.0" y1="1859.41962288969" x2="94.0" y2="1869.41962288969"/>
    <line x1="94.0" y1="1869.41962288969" x2="91.0000000000001" y2="1869.41962288969"/>
    <line x1="91.0000000000001" y1="1869.41962288969" x2="91.0" y2="1859.41962288969"/>
    <line x1="91.0" y1="1859.41962288969" x2="94.0" y2="1859.41962288969"/>
  </g>
</svg>
